<svg xmlns="http://www.w3.org/2000/svg" width="628.469970703125" height="352.5844421386719" viewBox="-349.000244140625 -236.3618621826172 628.469970703125 352.5844421386719"><title>Neo4j Graph Visualization</title><desc>Created using Neo4j (http://www.neo4j.com/)</desc><g class="layer relationships"><g class="relationship" transform="translate(27.13656930155945 83.67506173433446) rotate(539.4571450456855)"><path class="outline" fill="#A5ABB6" stroke="none" d="M 24.018736134675446,-6.953439040707552 L 24.277555179777966,-5.987513214418485 A 249.75070678218626 249.75070678218626 0 0 1 24.321544550445395,-5.999295832370336 L 24.062901638460716,-6.9652688361753405 A 250.75070678218626 250.75070678218626 0 0 0 24.018736134675446,-6.953439040707552 Z M 149.06281110905567,-8.177531247192263 L 148.82295130065052,-7.206723711008152 A 249.75070678218626 249.75070678218626 0 0 1 148.86716091407848,-7.195796456180638 L 148.1470504439583,-4.283505105573131 L 155.782525810516,-6.000920584334812 L 149.82730820757203,-11.07885159032398 L 149.10719773745186,-8.166560239716473 A 250.75070678218626 250.75070678218626 0 0 0 149.06281110905567,-8.177531247192263"/><text text-anchor="middle" pointer-events="none" font-size="8px" fill="#000000" x="86.49095078744597" y="-11.98579456367301" transform="rotate(180 86.49095078744597 -14.98579456367301)" font-family="sans-serif">gene_associated_with_phenoty…</text></g><g class="relationship" transform="translate(27.13656930155945 83.67506173433446) rotate(270.19310575655277)"><path class="outline" fill="#A5ABB6" stroke="none" d="M 24.018736134675446,-6.953439040707552 L 24.277555179777966,-5.987513214418485 A 232.13965394509358 232.13965394509358 0 0 1 25.290468644653288,-6.256473433838636 L 25.036012979299386,-7.223557873982969 A 233.13965394509358 233.13965394509358 0 0 0 24.018736134675446,-6.953439040707552 Z M 139.07706715376827,-8.38551649384408 L 138.8423694200984,-7.413448094084998 A 232.13965394509358 232.13965394509358 0 0 1 139.8605528717988,-7.165182619965759 L 139.14330142615847,-4.252185818778562 L 146.777087315509,-5.977095380336168 L 140.8168881326526,-11.049178354882022 L 140.09963668701226,-8.136181553694826 A 233.13965394509358 233.13965394509358 0 0 0 139.07706715376827,-8.38551649384408"/><text text-anchor="middle" pointer-events="none" font-size="8px" fill="#000000" x="81.98948792873048" y="-11.385405339664146" font-family="sans-serif">gene_has_median_expression</text></g><g class="relationship" transform="translate(27.13656930155945 83.67506173433446) rotate(316.1620980365329)"><path class="outline" fill="#A5ABB6" stroke="none" d="M 24.018736134675446,6.953439040707552 L 24.277555179777966,5.987513214418485 A 239.21382477339554 239.21382477339554 0 0 0 24.91030111486519,6.15612909325489 L 24.6541271758124,7.122759794686516 A 240.21382477339554 240.21382477339554 0 0 1 24.018736134675446,6.953439040707552 Z M 143.07789693124775,8.305340778367537 L 142.8410777219372,7.333787042282125 A 239.21382477339554 239.21382477339554 0 0 0 143.47706473826818,7.177840743757324 L 142.7586311455243,4.265135270693298 L 150.39311644087488,5.986946606198949 L 144.43497619526,11.061448041176025 L 143.7165426025161,8.148742568111999 A 240.21382477339554 240.21382477339554 0 0 1 143.07789693124775,8.305340778367537"/><text text-anchor="middle" pointer-events="none" font-size="8px" fill="#000000" x="83.79698350711546" y="17.626575348202664" font-family="sans-serif">gene_associated_with_pathway</text></g><g class="relationship" transform="translate(27.13656930155945 83.67506173433446) rotate(361.52359155193017)"><path class="outline" fill="#A5ABB6" stroke="none" d="M 25 0.5 L 43.01850640036469 0.5 L 43.01850640036469 -0.5 L 25 -0.5 Z M 72.13178765036469 0.5 L 90.15029405072939 0.5 L 90.15029405072939 3.5 L 97.15029405072939 0 L 90.15029405072939 -3.5 L 90.15029405072939 -0.5 L 72.13178765036469 -0.5 Z"/><text text-anchor="middle" pointer-events="none" font-size="8px" fill="#000000" x="57.57514702536469" y="3" font-family="sans-serif">CODE</text></g><g class="relationship" transform="translate(149.24367856582268 86.92286157498563) rotate(358.6660032478302)"><path class="outline" fill="#A5ABB6" stroke="none" d="M 25 0.5 L 35.902126234480576 0.5 L 35.902126234480576 -0.5 L 25 -0.5 Z M 58.351344984480576 0.5 L 69.25347121896115 0.5 L 69.25347121896115 3.5 L 76.25347121896115 0 L 69.25347121896115 -3.5 L 69.25347121896115 -0.5 L 58.351344984480576 -0.5 Z"/><text text-anchor="middle" pointer-events="none" font-size="8px" fill="#000000" x="47.126735609480576" y="3" font-family="sans-serif">SYN</text></g><g class="relationship" transform="translate(153.12329696006674 -37.30195241784105) rotate(496.1620980365329)"><path class="outline" fill="#A5ABB6" stroke="none" d="M 24.018736134675446,6.953439040707552 L 24.277555179777966,5.987513214418485 A 239.21382477339554 239.21382477339554 0 0 0 24.91030111486519,6.15612909325489 L 24.6541271758124,7.122759794686516 A 240.21382477339554 240.21382477339554 0 0 1 24.018736134675446,6.953439040707552 Z M 143.07789693124775,8.305340778367537 L 142.8410777219372,7.333787042282125 A 239.21382477339554 239.21382477339554 0 0 0 143.47706473826818,7.177840743757324 L 142.7586311455243,4.265135270693298 L 150.39311644087488,5.986946606198949 L 144.43497619526,11.061448041176025 L 143.7165426025161,8.148742568111999 A 240.21382477339554 240.21382477339554 0 0 1 143.07789693124775,8.305340778367537"/><text text-anchor="middle" pointer-events="none" font-size="8px" fill="#000000" x="83.79698350711546" y="17.626575348202664" transform="rotate(180 83.79698350711546 14.626575348202664)" font-family="sans-serif">pathway_associated_with_gene</text></g><g class="relationship" transform="translate(153.12329696006674 -37.30195241784105) rotate(271.6890667782239)"><path class="outline" fill="#A5ABB6" stroke="none" d="M 25 0.5 L 25.835888040389626 0.5 L 25.835888040389626 -0.5 L 25 -0.5 Z M 80.28510679038962 0.5 L 81.12099483077925 0.5 L 81.12099483077925 3.5 L 88.12099483077925 0 L 81.12099483077925 -3.5 L 81.12099483077925 -0.5 L 80.28510679038962 -0.5 Z"/><text text-anchor="middle" pointer-events="none" font-size="8px" fill="#000000" x="53.06049741538963" y="3" font-family="sans-serif">PREF_TERM</text></g><g class="relationship" transform="translate(27.71307031664268 -87.37602742378634) rotate(180.2974528944336)"><path class="outline" fill="#A5ABB6" stroke="none" d="M 24.018736134675446,6.953439040707552 L 24.277555179777966,5.987513214418485 A 269.7397470578167 269.7397470578167 0 0 0 36.462729580993894,8.950736135091574 L 36.249084354485504,9.927647449996982 A 270.7397470578167 270.7397470578167 0 0 1 24.018736134675446,6.953439040707552 Z M 147.06043698629946,10.94652446021837 L 146.8647911728478,9.965849837482153 A 269.7397470578167 269.7397470578167 0 0 0 159.10239269629528,7.227186985109211 L 158.3793507145415,4.315622063521245 L 166.0165511769595,6.025349847948334 L 160.066448671967,11.109273547226497 L 159.34340669021321,8.197708625638533 A 270.7397470578167 270.7397470578167 0 0 1 147.06043698629946,10.94652446021837"/><text text-anchor="middle" pointer-events="none" font-size="8px" fill="#000000" x="91.60667089134942" y="18.66724956667815" transform="rotate(180 91.60667089134942 15.667249566678151)" font-family="sans-serif">median_expression_in_tissue</text></g><g class="relationship" transform="translate(27.71307031664268 -87.37602742378634) rotate(450.19310575655277)"><path class="outline" fill="#A5ABB6" stroke="none" d="M 24.018736134675446,-6.953439040707552 L 24.277555179777966,-5.987513214418485 A 232.13965394509358 232.13965394509358 0 0 1 28.515630663556735,-7.080387750163624 L 28.275068195526487,-8.05102140864409 A 233.13965394509358 233.13965394509358 0 0 0 24.018736134675446,-6.953439040707552 Z M 135.82182417173155,-9.146809947686108 L 135.60108906915832,-8.171476151238977 A 232.13965394509358 232.13965394509358 0 0 1 139.8605528717988,-7.165182619965759 L 139.14330142615847,-4.252185818778562 L 146.777087315509,-5.977095380336168 L 140.8168881326526,-11.049178354882022 L 140.09963668701226,-8.136181553694826 A 233.13965394509358 233.13965394509358 0 0 0 135.82182417173155,-9.146809947686108"/><text text-anchor="middle" pointer-events="none" font-size="8px" fill="#000000" x="81.98948792873048" y="-11.385405339664146" transform="rotate(180 81.98948792873048 -14.385405339664146)" font-family="sans-serif">median_expression_in_gene</text></g><g class="relationship" transform="translate(-162.563957670723 -88.36386565002576) rotate(446.8186911551892)"><path class="outline" fill="#A5ABB6" stroke="none" d="M 17.324116139070416,18.03122292025696 L 18.031222920256962,17.324116139070412 A 95.92441570799765 95.92441570799765 0 0 0 72.3793882992188,44.46775936239277 L 72.2388543241091,45.457835219001666 A 96.92441570799765 96.92441570799765 0 0 1 17.324116139070416,18.03122292025696 Z M 94.1561763870083,46.06402403944482 L 94.07058238494321,45.06769394012508 A 95.92441570799765 95.92441570799765 0 0 0 149.83599146541667,20.969569581962705 L 147.8351672776074,18.734239053947338 L 155.38523339542073,16.673534898410352 L 152.50375704916235,23.950010285983193 L 150.5029328613531,21.714679757967826 A 96.92441570799765 96.92441570799765 0 0 1 94.1561763870083,46.06402403944482"/><text text-anchor="middle" pointer-events="none" font-size="8px" fill="#000000" x="83.19414279856784" y="48.88286757207423" font-family="sans-serif">PAR</text></g><g class="relationship" transform="translate(-162.563957670723 -88.36386565002576) rotate(446.8186911551892)"><path class="outline" fill="#A5ABB6" stroke="none" d="M 24.018736134675446,6.953439040707552 L 24.277555179777966,5.987513214418485 A 237.93640280439251 237.93640280439251 0 0 0 54.82766342276388,12.06265380504243 L 54.69724048638163,13.054112254835161 A 238.93640280439251 238.93640280439251 0 0 1 24.018736134675446,6.953439040707552 Z M 112.26866834146239,13.631096796391546 L 112.15814252671518,12.637223542764872 A 237.93640280439251 237.93640280439251 0 0 0 142.82387303964765,7.175592013432305 L 142.10564945612472,4.262834748559124 L 149.7400105882722,5.985196529357683 L 143.78150448434488,11.059268366596546 L 143.06328090082195,8.146511101723366 A 238.93640280439251 238.93640280439251 0 0 1 112.26866834146239,13.631096796391546"/><text text-anchor="middle" pointer-events="none" font-size="8px" fill="#000000" x="83.47052283086224" y="17.583025950630685" font-family="sans-serif">finding_site_of</text></g><g class="relationship" transform="translate(-162.563957670723 -88.36386565002576) rotate(360.2974528944336)"><path class="outline" fill="#A5ABB6" stroke="none" d="M 24.018736134675446,6.953439040707552 L 24.277555179777966,5.987513214418485 A 269.7397470578167 269.7397470578167 0 0 0 33.21431754183705,8.219288592514204 L 32.98862955161071,9.193488228660499 A 270.7397470578167 270.7397470578167 0 0 1 24.018736134675446,6.953439040707552 Z M 150.33384014639128,10.272442094803296 L 150.12610374337652,9.294257251911915 A 269.7397470578167 269.7397470578167 0 0 0 159.10239269629528,7.227186985109211 L 158.3793507145415,4.315622063521245 L 166.0165511769595,6.025349847948334 L 160.066448671967,11.109273547226497 L 159.34340669021321,8.197708625638533 A 270.7397470578167 270.7397470578167 0 0 1 150.33384014639128,10.272442094803296"/><text text-anchor="middle" pointer-events="none" font-size="8px" fill="#000000" x="91.60667089134942" y="18.66724956667815" font-family="sans-serif">tissue_has_median_expression</text></g><g class="relationship" transform="translate(-162.563957670723 -88.36386565002576) rotate(270.89288389646043)"><path class="outline" fill="#A5ABB6" stroke="none" d="M 25 0.5 L 41.449583424197094 0.5 L 41.449583424197094 -0.5 L 25 -0.5 Z M 70.5628646741971 0.5 L 87.01244809839419 0.5 L 87.01244809839419 3.5 L 94.01244809839419 0 L 87.01244809839419 -3.5 L 87.01244809839419 -0.5 L 70.5628646741971 -0.5 Z"/><text text-anchor="middle" pointer-events="none" font-size="8px" fill="#000000" x="56.006224049197094" y="3" font-family="sans-serif">CODE</text></g><g class="relationship" transform="translate(-162.563957670723 -88.36386565002576) rotate(539.2374502570167)"><path class="outline" fill="#A5ABB6" stroke="none" d="M 25 0.5 L 47.889080716985234 0.5 L 47.889080716985234 -0.5 L 25 -0.5 Z M 102.33829946698523 0.5 L 125.22738018397047 0.5 L 125.22738018397047 3.5 L 132.22738018397047 0 L 125.22738018397047 -3.5 L 125.22738018397047 -0.5 L 102.33829946698523 -0.5 Z"/><text text-anchor="middle" pointer-events="none" font-size="8px" fill="#000000" x="75.11369009198523" y="3" transform="rotate(180 75.11369009198523 0)" font-family="sans-serif">PREF_TERM</text></g><g class="relationship" transform="translate(-152.90696970604114 85.38095443098783) rotate(266.8186911551892)"><path class="outline" fill="#A5ABB6" stroke="none" d="M 24.018736134675446,6.953439040707552 L 24.277555179777966,5.987513214418485 A 237.93640280439251 237.93640280439251 0 0 0 71.84206361355955,13.681708156307508 L 71.78314886167644,14.679971173758616 A 238.93640280439251 238.93640280439251 0 0 1 24.018736134675446,6.953439040707552 Z M 95.15360624747466,14.914191396238607 L 95.11471063178087,13.914948117011875 A 237.93640280439251 237.93640280439251 0 0 0 142.82387303964765,7.175592013432305 L 142.10564945612472,4.262834748559124 L 149.7400105882722,5.985196529357683 L 143.78150448434488,11.059268366596546 L 143.06328090082195,8.146511101723366 A 238.93640280439251 238.93640280439251 0 0 1 95.15360624747466,14.914191396238607"/><text text-anchor="middle" pointer-events="none" font-size="8px" fill="#000000" x="83.47052283086224" y="17.583025950630685" transform="rotate(180 83.47052283086224 14.583025950630685)" font-family="sans-serif">CHD</text></g><g class="relationship" transform="translate(-152.90696970604114 85.38095443098783) rotate(266.8186911551892)"><path class="outline" fill="#A5ABB6" stroke="none" d="M 17.324116139070416,18.03122292025696 L 18.031222920256962,17.324116139070412 A 95.92441570799765 95.92441570799765 0 0 0 52.195364013070524,39.31838153469616 L 51.844414116871555,40.254775773442816 A 96.92441570799765 96.92441570799765 0 0 1 17.324116139070416,18.03122292025696 Z M 114.80703064269466,41.99619446201565 L 114.50837521431257,41.04183345322605 A 95.92441570799765 95.92441570799765 0 0 0 149.83599146541667,20.969569581962705 L 147.8351672776074,18.734239053947338 L 155.38523339542073,16.673534898410352 L 152.50375704916235,23.950010285983193 L 150.5029328613531,21.714679757967826 A 96.92441570799765 96.92441570799765 0 0 1 114.80703064269466,41.99619446201565"/><text text-anchor="middle" pointer-events="none" font-size="8px" fill="#000000" x="83.19414279856784" y="48.88286757207423" transform="rotate(180 83.19414279856784 45.88286757207423)" font-family="sans-serif">has_finding_site</text></g><g class="relationship" transform="translate(-152.90696970604114 85.38095443098783) rotate(359.4571450456855)"><path class="outline" fill="#A5ABB6" stroke="none" d="M 24.018736134675446,-6.953439040707552 L 24.277555179777966,-5.987513214418485 A 249.75070678218626 249.75070678218626 0 0 1 24.321544550445395,-5.999295832370336 L 24.062901638460716,-6.9652688361753405 A 250.75070678218626 250.75070678218626 0 0 0 24.018736134675446,-6.953439040707552 Z M 149.06281110905567,-8.177531247192263 L 148.82295130065052,-7.206723711008152 A 249.75070678218626 249.75070678218626 0 0 1 148.86716091407848,-7.195796456180638 L 148.1470504439583,-4.283505105573131 L 155.782525810516,-6.000920584334812 L 149.82730820757203,-11.07885159032398 L 149.10719773745186,-8.166560239716473 A 250.75070678218626 250.75070678218626 0 0 0 149.06281110905567,-8.177531247192263"/><text text-anchor="middle" pointer-events="none" font-size="8px" fill="#000000" x="86.49095078744597" y="-11.98579456367301" font-family="sans-serif">phenotype_associated_with_ge…</text></g><g class="relationship" transform="translate(-152.90696970604114 85.38095443098783) rotate(539.3685343972076)"><path class="outline" fill="#A5ABB6" stroke="none" d="M 25 0.5 L 65.49507524398189 0.5 L 65.49507524398189 -0.5 L 25 -0.5 Z M 94.60835649398189 0.5 L 135.10343173796377 0.5 L 135.10343173796377 3.5 L 142.10343173796377 0 L 135.10343173796377 -3.5 L 135.10343173796377 -0.5 L 94.60835649398189 -0.5 Z"/><text text-anchor="middle" pointer-events="none" font-size="8px" fill="#000000" x="80.05171586898189" y="3" transform="rotate(180 80.05171586898189 0)" font-family="sans-serif">CODE</text></g></g><g class="layer nodes"><g class="node" aria-label="graph-node1990825" transform="translate(27.13656930155945,83.67506173433446)"><circle class="outline" cx="0" cy="0" r="25" fill="#C990C0" stroke="#b261a5" stroke-width="2px"/><text class="caption" text-anchor="middle" pointer-events="none" x="0" y="5" font-size="10px" fill="#FFFFFF" font-family="sans-serif"> C1366757</text></g><g class="node" aria-label="graph-node32150323" transform="translate(149.24367856582268,86.92286157498563)"><circle class="outline" cx="0" cy="0" r="25" fill="#F79767" stroke="#f36924" stroke-width="2px"/><text class="caption" text-anchor="middle" pointer-events="none" x="0" y="5" font-size="10px" fill="#FFFFFF" font-family="sans-serif"> HGNC:3…</text></g><g class="node" aria-label="graph-node23759553" transform="translate(250.46970722707647,84.5656268900168)"><circle class="outline" cx="0" cy="0" r="25" fill="#57C7E3" stroke="#23b3d7" stroke-width="2px"/><text class="caption" text-anchor="middle" pointer-events="none" x="0" y="5" font-size="10px" fill="#2A2C34" font-family="sans-serif"> ARMD5</text></g><g class="node" aria-label="graph-node19553409" transform="translate(153.12329696006674,-37.30195241784105)"><circle class="outline" cx="0" cy="0" r="25" fill="#C990C0" stroke="#b261a5" stroke-width="2px"/><text class="caption" text-anchor="middle" pointer-events="none" x="0" y="5" font-size="10px" fill="#FFFFFF" font-family="sans-serif"> TTI2MT…</text></g><g class="node" aria-label="graph-node32640771" transform="translate(156.45759561424774,-150.37379649933604)"><circle class="outline" cx="0" cy="0" r="25" fill="#57C7E3" stroke="#23b3d7" stroke-width="2px"/><text class="caption" text-anchor="middle" pointer-events="none" x="0" y="5" font-size="10px" fill="#2A2C34" font-family="sans-serif"> ZWANG…</text></g><g class="node" aria-label="graph-node6723967" transform="translate(27.71307031664268,-87.37602742378634)"><circle class="outline" cx="0" cy="0" r="25" fill="#C990C0" stroke="#b261a5" stroke-width="2px"/><text class="caption" text-anchor="middle" pointer-events="none" x="0" y="5" font-size="10px" fill="#FFFFFF" font-family="sans-serif"> R1RFW…</text></g><g class="node" aria-label="graph-node671546" transform="translate(-162.563957670723,-88.36386565002576)"><circle class="outline" cx="0" cy="0" r="25" fill="#C990C0" stroke="#b261a5" stroke-width="2px"/><text class="caption" text-anchor="middle" pointer-events="none" x="0" y="5" font-size="10px" fill="#FFFFFF" font-family="sans-serif"> C0005682</text></g><g class="node" aria-label="graph-node38073153" transform="translate(-160.70937085424674,-207.36186273448564)"><circle class="outline" cx="0" cy="0" r="25" fill="#F79767" stroke="#f36924" stroke-width="2px"/><text class="caption" text-anchor="middle" pointer-events="none" x="0" y="5" font-size="10px" fill="#FFFFFF" font-family="sans-serif"> 0001255</text></g><g class="node" aria-label="graph-node25582284" transform="translate(-319.77741325031275,-86.27138763600738)"><circle class="outline" cx="0" cy="0" r="25" fill="#57C7E3" stroke="#23b3d7" stroke-width="2px"/><text class="caption" text-anchor="middle" pointer-events="none" x="0" y="0" font-size="10px" fill="#2A2C34" font-family="sans-serif"> Urinary</text><text class="caption" text-anchor="middle" pointer-events="none" x="0" y="10" font-size="10px" fill="#2A2C34" font-family="sans-serif"> Bladder</text></g><g class="node" aria-label="graph-node4523321" transform="translate(-152.90696970604114,85.38095443098783)"><circle class="outline" cx="0" cy="0" r="25" fill="#C990C0" stroke="#b261a5" stroke-width="2px"/><text class="caption" text-anchor="middle" pointer-events="none" x="0" y="5" font-size="10px" fill="#FFFFFF" font-family="sans-serif"> C0005697</text></g><g class="node" aria-label="graph-node33224717" transform="translate(-320.0002528679738,87.22258978319493)"><circle class="outline" cx="0" cy="0" r="25" fill="#F79767" stroke="#f36924" stroke-width="2px"/><text class="caption" text-anchor="middle" pointer-events="none" x="0" y="5" font-size="10px" fill="#FFFFFF" font-family="sans-serif"> HP:0000…</text></g></g></svg>