<svg xmlns="http://www.w3.org/2000/svg" width="1462.1168212890625" height="1180.2779541015625" viewBox="-873.1041870117188 -616.708740234375 1462.1168212890625 1180.2779541015625"><title>Neo4j Graph Visualization</title><desc>Created using Neo4j (http://www.neo4j.com/)</desc><g class="layer relationships"><g class="relationship" transform="translate(357.30242242055783 166.31571909407552) rotate(503.0002642465123)"><path class="outline" fill="#A5ABB6" stroke="none" d="M 24.018736134675446,6.953439040707552 L 24.277555179777966,5.987513214418485 A 270.74989871396986 270.74989871396986 0 0 0 38.45049069157857,9.379106838824953 L 38.244018611624035,10.357559331386199 A 271.74989871396986 271.74989871396986 0 0 1 24.018736134675446,6.953439040707552 Z M 145.5756894954563,11.341858052396958 L 145.38719667793794,10.359783484075365 A 270.74989871396986 270.74989871396986 0 0 0 159.6199493402624,7.2286878311343274 L 158.89676719810382,4.317157719790311 L 166.53404995709155,6.026517851321606 L 160.58419219647385,11.110727979593017 L 159.86101005431527,8.199197868249 A 271.74989871396986 271.74989871396986 0 0 1 145.5756894954563,11.341858052396958"/><text text-anchor="middle" pointer-events="none" font-size="8px" fill="#000000" x="91.86535837106753" y="18.701686902328504" transform="rotate(180 91.86535837106753 15.701686902328504)" font-family="sans-serif">gene_plays_role_in_process</text></g><g class="relationship" transform="translate(204.92479246523436 281.13939747590103) rotate(509.6129175661462)"><path class="outline" fill="#A5ABB6" stroke="none" d="M 24.018736134675446,-6.953439040707552 L 24.277555179777966,-5.987513214418485 A 261.74026103965326 261.74026103965326 0 0 1 80.80417371548491,-14.66564191354405 L 80.76131922360466,-15.664723237824376 A 262.74026103965326 262.74026103965326 0 0 0 24.018736134675446,-6.953439040707552 Z M 98.34932974041884,-15.829871655509521 L 98.32524355694459,-14.830161769709832 A 261.74026103965326 261.74026103965326 0 0 1 155.00485311999458,-7.215020235888777 L 154.28294736583732,-4.303173385157329 L 161.91948006406082,-6.015881284643763 L 155.9673941255376,-11.097482703530707 L 155.24548837138033,-8.18563585279926 A 262.74026103965326 262.74026103965326 0 0 0 98.34932974041884,-15.829871655509521"/><text text-anchor="middle" pointer-events="none" font-size="8px" fill="#000000" x="89.5586368482023" y="-12.394536383548825" transform="rotate(180 89.5586368482023 -15.394536383548825)" font-family="sans-serif">QB</text></g><g class="relationship" transform="translate(44.31655941059365 375.3190209263121) rotate(524.0530195973167)"><path class="outline" fill="#A5ABB6" stroke="none" d="M 24.018736134675446,6.953439040707552 L 24.277555179777966,5.987513214418485 A 243.8485355380308 243.8485355380308 0 0 0 76.22915294036586,14.040893805251528 L 76.18338253074504,15.039845790886062 A 244.8485355380308 244.8485355380308 0 0 1 24.018736134675446,6.953439040707552 Z M 93.77326584585416,15.21323494276541 L 93.74719640037249,14.213574808513641 A 243.8485355380308 243.8485355380308 0 0 0 145.84745331333562,7.1858669018094155 L 145.12827015867393,4.273346414319089 L 152.76319830992333,5.9931929555139085 L 146.80636418621785,11.069227551796518 L 146.08718103155616,8.156707064306191 A 244.8485355380308 244.8485355380308 0 0 1 93.77326584585416,15.21323494276541"/><text text-anchor="middle" pointer-events="none" font-size="8px" fill="#000000" x="84.98169500037461" y="17.784580155163127" transform="rotate(180 84.98169500037461 14.784580155163127)" font-family="sans-serif">AQ</text></g><g class="relationship" transform="translate(116.14948942671407 -301.95626242625286) rotate(483.7409564333184)"><path class="outline" fill="#A5ABB6" stroke="none" d="M 24.018736134675446,-6.953439040707552 L 24.277555179777966,-5.987513214418485 A 232.86522066371953 232.86522066371953 0 0 1 25.471436148198272,-6.304021543663993 L 25.217744021426526,-7.271306561026535 A 233.86522066371953 233.86522066371953 0 0 0 24.018736134675446,-6.953439040707552 Z M 139.2652970135943,-8.430914933183487 L 139.03132555076306,-7.458671468520123 A 232.86522066371953 232.86522066371953 0 0 1 140.23139538715623,-7.1665042612274075 L 139.51402051255417,-4.253537854059336 L 147.1478794829821,-5.97812395501725 L 141.187895219959,-11.050459470784837 L 140.47052034535693,-8.137493063616764 A 233.86522066371953 233.86522066371953 0 0 0 139.2652970135943,-8.430914933183487"/><text text-anchor="middle" pointer-events="none" font-size="8px" fill="#000000" x="82.17482985825872" y="-11.410141086755857" transform="rotate(180 82.17482985825872 -14.410141086755857)" font-family="sans-serif">gene_has_median_expression</text></g><g class="relationship" transform="translate(20.93469440087856 -159.40854956431153) rotate(489.86174670993023)"><path class="outline" fill="#A5ABB6" stroke="none" d="M 24.018736134675446,6.953439040707552 L 24.277555179777966,5.987513214418485 A 302.40204970737005 302.40204970737005 0 0 0 44.73302640979512,10.714056122143347 L 44.54185066026487,11.695611944698328 A 303.40204970737005 303.40204970737005 0 0 1 24.018736134675446,6.953439040707552 Z M 155.4924146570736,12.63589623203137 L 155.3179021586048,11.651241273237076 A 302.40204970737005 302.40204970737005 0 0 0 175.8505425778329,7.272064579462695 L 175.12330963354546,4.361543621843075 L 182.7629636363266,6.060274535728622 L 176.82018650354948,11.152759189622188 L 176.09295355926204,8.242238232002569 A 303.40204970737005 303.40204970737005 0 0 1 155.4924146570736,12.63589623203137"/><text text-anchor="middle" pointer-events="none" font-size="8px" fill="#000000" x="99.97802158955844" y="19.78073621113333" transform="rotate(180 99.97802158955844 16.78073621113333)" font-family="sans-serif">median_expression_in_tissue</text></g><g class="relationship" transform="translate(-111.75041684590224 -0.5034653092203882) rotate(450.4416585043498)"><path class="outline" fill="#A5ABB6" stroke="none" d="M 24.018736134675446,-6.953439040707552 L 24.277555179777966,-5.987513214418485 A 247.5655161041599 247.5655161041599 0 0 1 77.17913485844707,-14.170843940604328 L 77.13400300415837,-15.16982497932753 A 248.5655161041599 248.5655161041599 0 0 0 24.018736134675446,-6.953439040707552 Z M 94.72347806756696,-15.34143595748904 L 94.69784598267739,-14.341764513351421 A 247.5655161041599 247.5655161041599 0 0 1 147.74902082834012,-7.192157407528341 L 147.02925020634632,-4.279782045093988 L 154.66452511101926,-5.998088516615153 L 148.70871499099854,-11.075324557440812 L 147.98894436900474,-8.162949195006458 A 248.5655161041599 248.5655161041599 0 0 0 94.72347806756696,-15.34143595748904"/><text text-anchor="middle" pointer-events="none" font-size="8px" fill="#000000" x="85.93210000150364" y="-11.911297968521524" transform="rotate(180 85.93210000150364 -14.911297968521524)" font-family="sans-serif">QB</text></g><g class="relationship" transform="translate(-113.12969961510375 178.42553843417932) rotate(452.9783967887989)"><path class="outline" fill="#A5ABB6" stroke="none" d="M 24.018736134675446,-6.953439040707552 L 24.277555179777966,-5.987513214418485 A 378.03901056301595 378.03901056301595 0 0 1 110.64422379314078,-18.69462229740327 L 110.6138644207179,-19.694161345417967 A 379.03901056301595 379.03901056301595 0 0 0 24.018736134675446,-6.953439040707552 Z M 128.19362252841125,-19.82023597666887 L 128.17760208868344,-18.8203643121484 A 378.03901056301595 378.03901056301595 0 0 1 214.71763792570266,-7.3532693903846535 L 213.9828218001187,-4.444653695319083 L 221.62687723511965,-6.123467713199673 L 215.6973927598146,-11.231423650472081 L 214.96257663423063,-8.32280795540651 A 379.03901056301595 379.03901056301595 0 0 0 128.19362252841125,-19.82023597666887"/><text text-anchor="middle" pointer-events="none" font-size="8px" fill="#000000" x="119.40659814025058" y="-16.359146081074073" transform="rotate(180 119.40659814025058 -19.359146081074073)" font-family="sans-serif">AQ</text></g><g class="relationship" transform="translate(-129.93165203073858 -476.8708596684243) rotate(446.4986754813281)"><path class="outline" fill="#A5ABB6" stroke="none" d="M 24.018736134675446,-6.953439040707552 L 24.277555179777966,-5.987513214418485 A 361.40323413615437 361.40323413615437 0 0 1 58.00448513283054,-13.318392150974432 L 57.83898824637905,-14.30460246352186 A 362.40323413615437 362.40323413615437 0 0 0 24.018736134675446,-6.953439040707552 Z M 172.47992071614806,-15.155568966103033 L 172.3290823117652,-14.167010532947302 A 361.40323413615437 361.40323413615437 0 0 1 206.16112236604957,-7.337614087736975 L 205.42776816039594,-4.428629452327199 L 213.07097888294797,-6.111285047113495 L 207.13892797358773,-11.216260268283344 L 206.4055737679341,-8.307275632873568 A 362.40323413615437 362.40323413615437 0 0 0 172.47992071614806,-15.155568966103033"/><text text-anchor="middle" pointer-events="none" font-size="8px" fill="#000000" x="115.12930291234768" y="-15.792059911749732" font-family="sans-serif">gene_has_median_expression</text></g><g class="relationship" transform="translate(-115.43859365596738 -240.0013128150427) rotate(449.11773627447224)"><path class="outline" fill="#A5ABB6" stroke="none" d="M 24.018736134675446,6.953439040707552 L 24.277555179777966,5.987513214418485 A 365.7098445332222 365.7098445332222 0 0 0 60.863673493878096,13.809512087260885 L 60.70489583092868,14.796826451457207 A 366.7098445332222 366.7098445332222 0 0 1 24.018736134675446,6.953439040707552 Z M 171.82283130627815,15.614228397806755 L 171.67859573647186,14.624685018058983 A 365.7098445332222 365.7098445332222 0 0 0 208.37582829559508,7.341770617786565 L 207.64208594460666,4.432883861247905 L 215.28552111935002,6.114519591570057 L 209.3541514302463,11.220286293171446 L 208.62040907925788,8.311399536632786 A 366.7098445332222 366.7098445332222 0 0 1 171.82283130627815,15.614228397806755"/><text text-anchor="middle" pointer-events="none" font-size="8px" fill="#000000" x="116.23640051141494" y="21.938865998452457" font-family="sans-serif">median_expression_in_tissue</text></g><g class="relationship" transform="translate(296.2880205008376 -130.14484031120006) rotate(519.889820425743)"><path class="outline" fill="#A5ABB6" stroke="none" d="M 24.018736134675446,-6.953439040707552 L 24.277555179777966,-5.987513214418485 A 319.18454448720036 319.18454448720036 0 0 1 47.246533509917604,-11.24166810133579 L 47.05967590131584,-12.224055109651601 A 320.18454448720036 320.18454448720036 0 0 0 24.018736134675446,-6.953439040707552 Z M 161.5849126903674,-13.15705589122308 L 161.41408521153787,-12.171754935942545 A 319.18454448720036 319.18454448720036 0 0 1 184.46561709908207,-7.2925145500142055 L 183.73647443622275,-4.382471427103749 L 191.37724149634968,-6.076188857160902 L 185.4378073162278,-11.172572047228147 L 184.7086646533685,-8.26252892431769 A 320.18454448720036 320.18454448720036 0 0 0 161.5849126903674,-13.15705589122308"/><text text-anchor="middle" pointer-events="none" font-size="8px" fill="#000000" x="104.28431202152338" y="-14.35285487467388" transform="rotate(180 104.28431202152338 -17.35285487467388)" font-family="sans-serif">gene_has_median_expression</text></g><g class="relationship" transform="translate(93.8065487198733 -56.0063493942729) rotate(524.8897745128498)"><path class="outline" fill="#A5ABB6" stroke="none" d="M 24.018736134675446,6.953439040707552 L 24.277555179777966,5.987513214418485 A 313.90524473315935 313.90524473315935 0 0 0 47.65566445484789,11.303800056126079 L 47.47132046126909,12.286661842966623 A 314.90524473315935 314.90524473315935 0 0 1 24.018736134675446,6.953439040707552 Z M 158.4604274604728,13.202005938576633 L 158.29231906129056,12.21623742309015 A 313.90524473315935 313.90524473315935 0 0 0 181.7549308971736,7.2862531534299375 L 181.02637295204255,4.376063585620585 L 188.66679954625062,6.071316209425647 L 182.7263414906817,11.166505910509073 L 181.99778354555065,8.256316342699721 A 314.90524473315935 314.90524473315935 0 0 1 158.4604274604728,13.202005938576633"/><text text-anchor="middle" pointer-events="none" font-size="8px" fill="#000000" x="102.92935103771642" y="20.172883378733047" transform="rotate(180 102.92935103771642 17.172883378733047)" font-family="sans-serif">median_expression_in_tissue</text></g><g class="relationship" transform="translate(-466.89179577635514 -125.13655455076517) rotate(431.09044160731304)"><path class="outline" fill="#A5ABB6" stroke="none" d="M 24.018736134675446,6.953439040707552 L 24.277555179777966,5.987513214418485 A 292.8640196756451 292.8640196756451 0 0 0 46.66071071853516,11.05415917513028 L 46.4783201659581,12.037385337480885 A 293.8640196756451 293.8640196756451 0 0 1 24.018736134675446,6.953439040707552 Z M 148.6546851301256,12.923583547413102 L 148.48937620905855,11.937341710632893 A 292.8640196756451 292.8640196756451 0 0 0 170.95704613684373,7.259696878081762 L 170.23096815923932,4.348887579890295 L 177.8699474955579,6.050649813370066 L 171.92515010698295,11.14077594233705 L 171.19907212937855,8.229966644145584 A 293.8640196756451 293.8640196756451 0 0 1 148.6546851301256,12.923583547413102"/><text text-anchor="middle" pointer-events="none" font-size="8px" fill="#000000" x="97.53202577212956" y="19.45557919727412" font-family="sans-serif">gene_located_in_chr_band</text></g><g class="relationship" transform="translate(-401.3875387040858 66.08162393034463) rotate(411.19193756456264)"><path class="outline" fill="#A5ABB6" stroke="none" d="M 24.018736134675446,6.953439040707552 L 24.277555179777966,5.987513214418485 A 381.1168237997347 381.1168237997347 0 0 0 72.48705592780064,15.62242450944592 L 72.35473221887187,16.613631065142215 A 382.1168237997347 382.1168237997347 0 0 1 24.018736134675446,6.953439040707552 Z M 168.07735877780257,17.295839163355197 L 167.95917630485985,16.302847268580024 A 381.1168237997347 381.1168237997347 0 0 0 216.30110751261694,7.356050906689594 L 215.56603164537927,4.447500843616107 L 223.21023697099469,6.125632226980601 L 217.28120866893386,11.234117657454242 L 216.5461328016962,8.325567594380756 A 382.1168237997347 382.1168237997347 0 0 1 168.07735877780257,17.295839163355197"/><text text-anchor="middle" pointer-events="none" font-size="8px" fill="#000000" x="120.19816170577414" y="22.464062695462587" font-family="sans-serif">chr_band_contains_gene</text></g><g class="relationship" transform="translate(-246.3084472356778 258.90554461484993) rotate(413.8898374018829)"><path class="outline" fill="#A5ABB6" stroke="none" d="M 24.018736134675446,-6.953439040707552 L 24.277555179777966,-5.987513214418485 A 297.10850256550765 297.10850256550765 0 0 1 35.7790187894759,-8.824823816182004 L 35.55891106872251,-9.80029938802619 A 298.10850256550765 298.10850256550765 0 0 0 24.018736134675446,-6.953439040707552 Z M 161.78928010627186,-10.883835619449087 L 161.58595015935987,-9.904725343387781 A 297.10850256550765 297.10850256550765 0 0 1 173.13442522523422,-7.26527080334278 L 172.40782672167495,-4.354591395605572 L 180.04711026054758,-6.0549875296606706 L 174.1032232299799,-11.146176680325723 L 173.37662472642063,-8.235497272588516 A 298.10850256550765 298.10850256550765 0 0 0 161.78928010627186,-10.883835619449087"/><text text-anchor="middle" pointer-events="none" font-size="8px" fill="#000000" x="98.62037637440591" y="-13.600276409233231" font-family="sans-serif">gene_associated_with_phenotype</text></g><g class="relationship" transform="translate(-352.7127753865912 -275.52826702043785) rotate(414.3106088544592)"><path class="outline" fill="#A5ABB6" stroke="none" d="M 24.018736134675446,-6.953439040707552 L 24.277555179777966,-5.987513214418485 A 232.82498752380502 232.82498752380502 0 0 1 25.461400094852053,-6.301388549886298 L 25.207665748465352,-7.268662493225861 A 233.82498752380502 233.82498752380502 0 0 0 24.018736134675446,-6.953439040707552 Z M 139.25486001910366,-8.428400952478398 L 139.02084840010662,-7.456167152317988 A 232.82498752380502 232.82498752380502 0 0 1 140.2108313997242,-7.166431117653851 L 139.49346335604716,-4.253463028245566 L 147.12731828228974,-5.978067030642109 L 141.16732212462696,-11.050388570198232 L 140.4499540809499,-8.137420480789947 A 233.82498752380502 233.82498752380502 0 0 0 139.25486001910366,-8.428400952478398"/><text text-anchor="middle" pointer-events="none" font-size="8px" fill="#000000" x="82.16455225517055" y="-11.408769473661152" font-family="sans-serif">gene_has_median_expression</text></g><g class="relationship" transform="translate(-252.7183886953212 -136.31696653195664) rotate(403.93311038814323)"><path class="outline" fill="#A5ABB6" stroke="none" d="M 24.018736134675446,6.953439040707552 L 24.277555179777966,5.987513214418485 A 280.4170497923162 280.4170497923162 0 0 0 39.16107237873819,9.543285309912278 L 38.95532969689526,10.521891435413295 A 281.4170497923162 281.4170497923162 0 0 1 24.018736134675446,6.953439040707552 Z M 149.81783295739916,11.51371314276912 L 149.6296318346918,10.531582633411176 A 280.4170497923162 280.4170497923162 0 0 0 164.57438443891965,7.242666549766204 L 163.84989686316507,4.33146100007081 L 171.48794531750133,6.037396464621429 L 165.5403678732591,11.124273949360063 L 164.81588029750452,8.21306839966467 A 281.4170497923162 281.4170497923162 0 0 1 149.81783295739916,11.51371314276912"/><text text-anchor="middle" pointer-events="none" font-size="8px" fill="#000000" x="94.34172894507978" y="19.031251093764126" font-family="sans-serif">median_expression_in_tissue</text></g><g class="relationship" transform="translate(-624.3421562473309 107.79180402029402) rotate(396.37314267266197)"><path class="outline" fill="#A5ABB6" stroke="none" d="M 24.018736134675446,-6.953439040707552 L 24.277555179777966,-5.987513214418485 A 307.4805594605361 307.4805594605361 0 0 1 50.37792866416305,-11.777806442388112 L 50.203994248938194,-12.762563681102506 A 308.4805594605361 308.4805594605361 0 0 0 24.018736134675446,-6.953439040707552 Z M 152.42065806681663,-13.61840155167522 L 152.26323719664964,-12.630869947302017 A 307.4805594605361 307.4805594605361 0 0 1 178.45690641546494,-7.278423352934992 L 177.7290796554961,-4.36805083253949 L 185.3690800897159,-6.065222999740294 L 179.4273420954234,-11.158920046795663 L 178.69951533545455,-8.24854752640016 A 308.4805594605361 308.4805594605361 0 0 0 152.42065806681663,-13.61840155167522"/><text text-anchor="middle" pointer-events="none" font-size="8px" fill="#000000" x="101.28081618057382" y="-13.953864522817184" font-family="sans-serif">gene_located_in_chr_band</text></g><g class="relationship" transform="translate(-455.5602693268682 232.10646466513023) rotate(396.1183224978488)"><path class="outline" fill="#A5ABB6" stroke="none" d="M 24.018736134675446,-6.953439040707552 L 24.277555179777966,-5.987513214418485 A 303.4716117249269 303.4716117249269 0 0 1 52.641156977410965,-12.150487606724312 L 52.47580170520112,-13.136721673238128 A 304.4716117249269 304.4716117249269 0 0 0 24.018736134675446,-6.953439040707552 Z M 148.08433595232287,-13.944911464948518 L 147.93567661507382,-12.956022997299783 A 303.4716117249269 303.4716117249269 0 0 1 176.39941045226345,-7.273416523107238 L 175.6720512562065,-4.362927114105483 L 183.31177893927705,-6.06132663380797 L 177.36922271367274,-11.15406906844291 L 176.64186351761577,-8.243579659441156 A 304.4716117249269 304.4716117249269 0 0 0 148.08433595232287,-13.944911464948518"/><text text-anchor="middle" pointer-events="none" font-size="8px" fill="#000000" x="100.25237320426787" y="-13.817198045453893" font-family="sans-serif">chr_band_contains_gene</text></g><g class="relationship" transform="translate(-287.8882740397768 354.4571374581322) rotate(383.22252340182456)"><path class="outline" fill="#A5ABB6" stroke="none" d="M 24.018736134675446,6.953439040707552 L 24.277555179777966,5.987513214418485 A 242.34242597582778 242.34242597582778 0 0 0 24.40216668875741,6.020867223836575 L 24.143861839666904,6.986930681864209 A 243.34242597582778 243.34242597582778 0 0 1 24.018736134675446,6.953439040707552 Z M 145.19096376464591,8.185149403251586 L 144.95183335788423,7.214161942693011 A 242.34242597582778 242.34242597582778 0 0 0 145.07708071227998,7.1832812313799135 L 144.35813903271534,4.27070112752272 L 151.99292456787418,5.99118066303863 L 146.03566961836614,11.066721369856172 L 145.3167279388015,8.154141265998978 A 243.34242597582778 243.34242597582778 0 0 1 145.19096376464591,8.185149403251586"/><text text-anchor="middle" pointer-events="none" font-size="8px" fill="#000000" x="84.59666429182847" y="17.733234446922637" font-family="sans-serif">gene_associated_with_phenot…</text></g><g class="relationship" transform="translate(462.08341184615085 -47.6117520141795) rotate(520.430040784761)"><path class="outline" fill="#A5ABB6" stroke="none" d="M 24.018736134675446,6.953439040707552 L 24.277555179777966,5.987513214418485 A 282.08947973596804 282.08947973596804 0 0 0 43.92522420613552,10.506249135195162 L 43.73605564585344,11.48819376489729 A 283.08947973596804 283.08947973596804 0 0 1 24.018736134675446,6.953439040707552 Z M 145.8783482764307,12.398150784666313 L 145.70670409041838,11.41299177546614 A 282.08947973596804 282.08947973596804 0 0 0 165.4317605897202,7.245016416811387 L 164.70705356737756,4.333865487751323 L 172.3452305945841,6.039225186188584 L 166.39803661951038,11.126550988891472 L 165.67332959716774,8.215400059831408 A 283.08947973596804 283.08947973596804 0 0 1 145.8783482764307,12.398150784666313"/><text text-anchor="middle" pointer-events="none" font-size="8px" fill="#000000" x="94.77027448514082" y="19.088265919739285" transform="rotate(180 94.77027448514082 16.088265919739285)" font-family="sans-serif">gene_located_in_chr_band</text></g><g class="relationship" transform="translate(276.8358207809001 18.242525815338638) rotate(496.8949941676045)"><path class="outline" fill="#A5ABB6" stroke="none" d="M 24.018736134675446,6.953439040707552 L 24.277555179777966,5.987513214418485 A 460.86884298610204 460.86884298610204 0 0 0 92.95970144904086,18.905119530040963 L 92.849909935989,19.899074168674815 A 461.86884298610204 461.86884298610204 0 0 1 24.018736134675446,6.953439040707552 Z M 188.63107181260736,20.48678749435203 L 188.53348592116194,19.491560387712127 A 460.86884298610204 460.86884298610204 0 0 0 257.3689794771283,7.417762477181561 L 256.62814100103964,4.510674870598868 L 264.275656971836,6.173653967405218 L 258.35676411191315,11.293879285958482 L 257.6159256358245,8.386791679375792 A 461.86884298610204 461.86884298610204 0 0 1 188.63107181260736,20.48678749435203"/><text text-anchor="middle" pointer-events="none" font-size="8px" fill="#000000" x="140.7282825497193" y="25.182553087203075" transform="rotate(180 140.7282825497193 22.182553087203075)" font-family="sans-serif">chr_band_contains_gene</text></g><g class="relationship" transform="translate(66.20021453057771 215.3863608594103) rotate(492.6465209655434)"><path class="outline" fill="#A5ABB6" stroke="none" d="M 24.018736134675446,-6.953439040707552 L 24.277555179777966,-5.987513214418485 A 451.27790035987306 451.27790035987306 0 0 1 75.07640797468385,-16.511984313127073 L 74.93015560469304,-17.50123162511335 A 452.27790035987306 452.27790035987306 0 0 0 24.018736134675446,-6.953439040707552 Z M 201.63453958671906,-18.291920223005604 L 201.50064476428412,-17.30092467481927 A 451.27790035987306 451.27790035987306 0 0 1 252.4268903387063,-7.411260935353119 L 251.68665896582198,-4.504018682874358 L 259.3338274899708,-6.168594774036144 L 253.41386550255206,-11.287583938658134 L 252.67363412966773,-8.380341686179372 A 452.27790035987306 452.27790035987306 0 0 0 201.63453958671906,-18.291920223005604"/><text text-anchor="middle" pointer-events="none" font-size="8px" fill="#000000" x="138.25764138297453" y="-18.8556382818806" transform="rotate(180 138.25764138297453 -21.8556382818806)" font-family="sans-serif">gene_associated_with_phenotype</text></g><g class="relationship" transform="translate(-651.408257003706 297.97992470602094) rotate(395.6405714164331)"><path class="outline" fill="#A5ABB6" stroke="none" d="M 24.018736134675446,6.953439040707552 L 24.277555179777966,5.987513214418485 A 306.6166677806426 306.6166677806426 0 0 0 66.19644161008156,14.140878035518426 L 66.07433687582758,15.133395256463643 A 307.6166677806426 307.6166677806426 0 0 1 24.018736134675446,6.953439040707552 Z M 136.06915125099528,15.720649285522313 L 135.9637169026626,14.72622301968272 A 306.6166677806426 306.6166677806426 0 0 0 178.01350553894875,7.277352427016191 L 177.2857787875295,4.36695489828085 L 184.92572089790107,6.064389595160486 L 178.9838078741744,11.157882465329978 L 178.25608112275515,8.247484936594638 A 307.6166677806426 307.6166677806426 0 0 1 136.06915125099528,15.720649285522313"/><text text-anchor="middle" pointer-events="none" font-size="8px" fill="#000000" x="101.05918099797414" y="19.92441418276178" font-family="sans-serif">coexpressed_with</text></g><g class="relationship" transform="translate(-481.4108926406615 419.8682515592477) rotate(387.3262646067037)"><path class="outline" fill="#A5ABB6" stroke="none" d="M 24.018736134675446,6.953439040707552 L 24.277555179777966,5.987513214418485 A 288.8646239332375 288.8646239332375 0 0 0 61.65913168312469,13.401308096279706 L 61.52972127240029,14.392899214430827 A 289.8646239332375 289.8646239332375 0 0 1 24.018736134675446,6.953439040707552 Z M 131.51209733071656,15.005887663626197 L 131.4000764998196,14.012181805011494 A 288.8646239332375 288.8646239332375 0 0 0 168.90578497874293,7.2543383679466045 L 168.18020741181166,4.343404292024223 L 175.81889408371705,6.046479724427353 L 169.8732217346513,11.13558380250978 L 169.14764416772005,8.224649726587398 A 289.8646239332375 289.8646239332375 0 0 1 131.51209733071656,15.005887663626197"/><text text-anchor="middle" pointer-events="none" font-size="8px" fill="#000000" x="96.50672079754102" y="19.319236725070937" font-family="sans-serif">coexpressed_with</text></g><g class="relationship" transform="translate(-303.66139281875587 511.71482151414864) rotate(333.7250716356765)"><path class="outline" fill="#A5ABB6" stroke="none" d="M 24.018736134675446,-6.953439040707552 L 24.277555179777966,-5.987513214418485 A 285.27809511832095 285.27809511832095 0 0 1 32.795309580242474,-8.129864547655188 L 32.56634825834486,-9.103300068413944 A 286.27809511832095 286.27809511832095 0 0 0 24.018736134675446,-6.953439040707552 Z M 158.72404531241241,-10.218246230853083 L 158.51232430756085,-9.240916083919842 A 285.27809511832095 285.27809511832095 0 0 1 167.06661228599597,-7.2494426485825745 L 166.341491912729,-4.3383946509925 L 173.97991100925063,-6.042669777224679 L 168.03343945035192,-11.130839978702674 L 167.30831907708495,-8.2197919811126 A 286.27809511832095 286.27809511832095 0 0 0 158.72404531241241,-10.218246230853083"/><text text-anchor="middle" pointer-events="none" font-size="8px" fill="#000000" x="95.58743173033976" y="-13.196968850745975" font-family="sans-serif">gene_associated_with_phenotype</text></g><g class="relationship" transform="translate(403.9521123638213 349.4586630419971) rotate(503.3221166456917)"><path class="outline" fill="#A5ABB6" stroke="none" d="M 24.018736134675446,6.953439040707552 L 24.277555179777966,5.987513214418485 A 296.45278099358296 296.45278099358296 0 0 0 47.57275224923862,11.23382998327503 L 47.39251299344145,12.217452782253247 A 297.45278099358296 297.45278099358296 0 0 1 24.018736134675446,6.953439040707552 Z M 149.57936225963562,13.096003706979161 L 149.41606178141228,12.109427326858452 A 296.45278099358296 296.45278099358296 0 0 0 172.7980189836734,7.264417158053615 L 172.07150019843687,4.353717851237736 L 179.7107371637832,6.054323210304361 L 173.76671069732208,11.145349567141455 L 173.04019191208556,8.234650260325575 A 297.45278099358296 297.45278099358296 0 0 1 149.57936225963562,13.096003706979161"/><text text-anchor="middle" pointer-events="none" font-size="8px" fill="#000000" x="98.45222517889555" y="19.577922461972776" transform="rotate(180 98.45222517889555 16.577922461972776)" font-family="sans-serif">gene_located_in_chr_band</text></g><g class="relationship" transform="translate(240.36964802380595 471.2910761526426) rotate(521.1030880308181)"><path class="outline" fill="#A5ABB6" stroke="none" d="M 24.018736134675446,-6.953439040707552 L 24.277555179777966,-5.987513214418485 A 279.7053049075508 279.7053049075508 0 0 1 46.59498254207692,-10.999215302449556 L 46.415952571299165,-11.983058922931605 A 280.7053049075508 280.7053049075508 0 0 0 24.018736134675446,-6.953439040707552 Z M 141.96722521122405,-12.839441976947342 L 141.8058580788142,-11.852547530424374 A 279.7053049075508 279.7053049075508 0 0 1 164.209528376629,-7.24166051408192 L 163.48513475142167,-4.330431585303052 L 171.12312814798094,-6.03661354339458 L 165.17538654357216,-11.123299085787078 L 164.45099291836482,-8.21207015700821 A 280.7053049075508 280.7053049075508 0 0 0 141.96722521122405,-12.839441976947342"/><text text-anchor="middle" pointer-events="none" font-size="8px" fill="#000000" x="94.15936192307149" y="-13.006986971644153" transform="rotate(180 94.15936192307149 -16.006986971644153)" font-family="sans-serif">chr_band_contains_gene</text></g><g class="relationship" transform="translate(55.516892320282466 534.5691898809852) rotate(211.3701252379484)"><path class="outline" fill="#A5ABB6" stroke="none" d="M 24.018736134675446,6.953439040707552 L 24.277555179777966,5.987513214418485 A 313.05418268937274 313.05418268937274 0 0 0 39.81145715895127,9.727683615064223 L 39.60225860396878,10.705556799374563 A 314.05418268937274 314.05418268937274 0 0 1 24.018736134675446,6.953439040707552 Z M 165.91741961458467,11.749372149427813 L 165.7244099903004,10.768175285932216 A 313.05418268937274 313.05418268937274 0 0 0 181.31800076379682,7.285229390119883 L 180.5895384225308,4.375015889814923 L 188.22990932138606,6.070519510550033 L 182.28928388548482,11.165514057193164 L 181.5608215442188,8.255300556888203 A 314.05418268937274 314.05418268937274 0 0 1 165.91741961458467,11.749372149427813"/><text text-anchor="middle" pointer-events="none" font-size="8px" fill="#000000" x="102.71094841834247" y="20.143870567650538" transform="rotate(180 102.71094841834247 17.143870567650538)" font-family="sans-serif">gene_associated_with_phenotype</text></g><g class="relationship" transform="translate(357.30242242055783 166.31571909407552) rotate(346.9381699113867)"><path class="outline" fill="#A5ABB6" stroke="none" d="M 25 0.5 L 43.437447884970425 0.5 L 43.437447884970425 -0.5 L 25 -0.5 Z M 97.88666663497042 0.5 L 116.32411451994085 0.5 L 116.32411451994085 3.5 L 123.32411451994085 0 L 116.32411451994085 -3.5 L 116.32411451994085 -0.5 L 97.88666663497042 -0.5 Z"/><text text-anchor="middle" pointer-events="none" font-size="8px" fill="#000000" x="70.66205725997042" y="3" font-family="sans-serif">PREF_TERM</text></g><g class="relationship" transform="translate(-125.90472066595382 423.95876412786663) rotate(344.05301959731673)"><path class="outline" fill="#A5ABB6" stroke="none" d="M 24.018736134675446,6.953439040707552 L 24.277555179777966,5.987513214418485 A 243.8485355380308 243.8485355380308 0 0 0 76.22915294036586,14.040893805251528 L 76.18338253074504,15.039845790886062 A 244.8485355380308 244.8485355380308 0 0 1 24.018736134675446,6.953439040707552 Z M 93.77326584585416,15.21323494276541 L 93.74719640037249,14.213574808513641 A 243.8485355380308 243.8485355380308 0 0 0 145.84745331333562,7.1858669018094155 L 145.12827015867393,4.273346414319089 L 152.76319830992333,5.9931929555139085 L 146.80636418621785,11.069227551796518 L 146.08718103155616,8.156707064306191 A 244.8485355380308 244.8485355380308 0 0 1 93.77326584585416,15.21323494276541"/><text text-anchor="middle" pointer-events="none" font-size="8px" fill="#000000" x="84.98169500037461" y="17.784580155163127" font-family="sans-serif">QB</text></g><g class="relationship" transform="translate(-125.90472066595382 423.95876412786663) rotate(272.9783967887989)"><path class="outline" fill="#A5ABB6" stroke="none" d="M 24.018736134675446,-6.953439040707552 L 24.277555179777966,-5.987513214418485 A 378.03901056301595 378.03901056301595 0 0 1 110.64422379314078,-18.69462229740327 L 110.6138644207179,-19.694161345417967 A 379.03901056301595 379.03901056301595 0 0 0 24.018736134675446,-6.953439040707552 Z M 128.19362252841125,-19.82023597666887 L 128.17760208868344,-18.8203643121484 A 378.03901056301595 378.03901056301595 0 0 1 214.71763792570266,-7.3532693903846535 L 213.9828218001187,-4.444653695319083 L 221.62687723511965,-6.123467713199673 L 215.6973927598146,-11.231423650472081 L 214.96257663423063,-8.32280795540651 A 379.03901056301595 379.03901056301595 0 0 0 128.19362252841125,-19.82023597666887"/><text text-anchor="middle" pointer-events="none" font-size="8px" fill="#000000" x="119.40659814025058" y="-16.359146081074073" font-family="sans-serif">QB</text></g><g class="relationship" transform="translate(-125.90472066595382 423.95876412786663) rotate(203.22252340182456)"><path class="outline" fill="#A5ABB6" stroke="none" d="M 24.018736134675446,6.953439040707552 L 24.277555179777966,5.987513214418485 A 242.34242597582778 242.34242597582778 0 0 0 24.618733578136293,6.078665309918307 L 24.361322369061597,7.044967265542255 A 243.34242597582778 243.34242597582778 0 0 1 24.018736134675446,6.953439040707552 Z M 144.97239697692928,8.238869848120089 L 144.7341647562806,7.267661626859166 A 242.34242597582778 242.34242597582778 0 0 0 145.07708071227998,7.1832812313799135 L 144.35813903271534,4.27070112752272 L 151.99292456787418,5.99118066303863 L 146.03566961836614,11.066721369856172 L 145.3167279388015,8.154141265998978 A 243.34242597582778 243.34242597582778 0 0 1 144.97239697692928,8.238869848120089"/><text text-anchor="middle" pointer-events="none" font-size="8px" fill="#000000" x="84.59666429182847" y="17.733234446922637" transform="rotate(180 84.59666429182847 14.733234446922637)" font-family="sans-serif">phenotype_associated_with_g…</text></g><g class="relationship" transform="translate(-125.90472066595382 423.95876412786663) rotate(391.3701252379484)"><path class="outline" fill="#A5ABB6" stroke="none" d="M 24.018736134675446,6.953439040707552 L 24.277555179777966,5.987513214418485 A 313.05418268937274 313.05418268937274 0 0 0 39.81145715895127,9.727683615064223 L 39.60225860396878,10.705556799374563 A 314.05418268937274 314.05418268937274 0 0 1 24.018736134675446,6.953439040707552 Z M 165.91741961458467,11.749372149427813 L 165.7244099903004,10.768175285932216 A 313.05418268937274 313.05418268937274 0 0 0 181.31800076379682,7.285229390119883 L 180.5895384225308,4.375015889814923 L 188.22990932138606,6.070519510550033 L 182.28928388548482,11.165514057193164 L 181.5608215442188,8.255300556888203 A 314.05418268937274 314.05418268937274 0 0 1 165.91741961458467,11.749372149427813"/><text text-anchor="middle" pointer-events="none" font-size="8px" fill="#000000" x="102.71094841834247" y="20.143870567650538" font-family="sans-serif">phenotype_associated_with_gene</text></g><g class="relationship" transform="translate(-125.90472066595382 423.95876412786663) rotate(233.88983740188291)"><path class="outline" fill="#A5ABB6" stroke="none" d="M 24.018736134675446,-6.953439040707552 L 24.277555179777966,-5.987513214418485 A 297.10850256550765 297.10850256550765 0 0 1 35.7790187894759,-8.824823816182004 L 35.55891106872251,-9.80029938802619 A 298.10850256550765 298.10850256550765 0 0 0 24.018736134675446,-6.953439040707552 Z M 161.78928010627186,-10.883835619449087 L 161.58595015935987,-9.904725343387781 A 297.10850256550765 297.10850256550765 0 0 1 173.13442522523422,-7.26527080334278 L 172.40782672167495,-4.354591395605572 L 180.04711026054758,-6.0549875296606706 L 174.1032232299799,-11.146176680325723 L 173.37662472642063,-8.235497272588516 A 298.10850256550765 298.10850256550765 0 0 0 161.78928010627186,-10.883835619449087"/><text text-anchor="middle" pointer-events="none" font-size="8px" fill="#000000" x="98.62037637440591" y="-13.600276409233231" transform="rotate(180 98.62037637440591 -16.60027640923323)" font-family="sans-serif">phenotype_associated_with_gene</text></g><g class="relationship" transform="translate(-125.90472066595382 423.95876412786663) rotate(312.6465209655434)"><path class="outline" fill="#A5ABB6" stroke="none" d="M 24.018736134675446,-6.953439040707552 L 24.277555179777966,-5.987513214418485 A 451.27790035987306 451.27790035987306 0 0 1 75.07640797468385,-16.511984313127073 L 74.93015560469304,-17.50123162511335 A 452.27790035987306 452.27790035987306 0 0 0 24.018736134675446,-6.953439040707552 Z M 201.63453958671906,-18.291920223005604 L 201.50064476428412,-17.30092467481927 A 451.27790035987306 451.27790035987306 0 0 1 252.4268903387063,-7.411260935353119 L 251.68665896582198,-4.504018682874358 L 259.3338274899708,-6.168594774036144 L 253.41386550255206,-11.287583938658134 L 252.67363412966773,-8.380341686179372 A 452.27790035987306 452.27790035987306 0 0 0 201.63453958671906,-18.291920223005604"/><text text-anchor="middle" pointer-events="none" font-size="8px" fill="#000000" x="138.25764138297453" y="-18.8556382818806" font-family="sans-serif">phenotype_associated_with_gene</text></g><g class="relationship" transform="translate(-125.90472066595382 423.95876412786663) rotate(513.7250716356765)"><path class="outline" fill="#A5ABB6" stroke="none" d="M 24.018736134675446,-6.953439040707552 L 24.277555179777966,-5.987513214418485 A 285.27809511832095 285.27809511832095 0 0 1 32.795309580242474,-8.129864547655188 L 32.56634825834486,-9.103300068413944 A 286.27809511832095 286.27809511832095 0 0 0 24.018736134675446,-6.953439040707552 Z M 158.72404531241241,-10.218246230853083 L 158.51232430756085,-9.240916083919842 A 285.27809511832095 285.27809511832095 0 0 1 167.06661228599597,-7.2494426485825745 L 166.341491912729,-4.3383946509925 L 173.97991100925063,-6.042669777224679 L 168.03343945035192,-11.130839978702674 L 167.30831907708495,-8.2197919811126 A 286.27809511832095 286.27809511832095 0 0 0 158.72404531241241,-10.218246230853083"/><text text-anchor="middle" pointer-events="none" font-size="8px" fill="#000000" x="95.58743173033976" y="-13.196968850745975" transform="rotate(180 95.58743173033976 -16.196968850745975)" font-family="sans-serif">phenotype_associated_with_gene</text></g><g class="relationship" transform="translate(-125.90472066595382 423.95876412786663) rotate(253.28134764582194)"><path class="outline" fill="#A5ABB6" stroke="none" d="M 25 0.5 L 144.64213311438513 0.5 L 144.64213311438513 -0.5 L 25 -0.5 Z M 173.75541436438513 0.5 L 293.39754747877026 0.5 L 293.39754747877026 3.5 L 300.39754747877026 0 L 293.39754747877026 -3.5 L 293.39754747877026 -0.5 L 173.75541436438513 -0.5 Z"/><text text-anchor="middle" pointer-events="none" font-size="8px" fill="#000000" x="159.19877373938513" y="3" transform="rotate(180 159.19877373938513 0)" font-family="sans-serif">CODE</text></g><g class="relationship" transform="translate(116.14948942671407 -301.95626242625286) rotate(298.9000022236853)"><path class="outline" fill="#A5ABB6" stroke="none" d="M 25 0.5 L 44.04608583425271 0.5 L 44.04608583425271 -0.5 L 25 -0.5 Z M 98.49530458425271 0.5 L 117.54139041850542 0.5 L 117.54139041850542 3.5 L 124.54139041850542 0 L 117.54139041850542 -3.5 L 117.54139041850542 -0.5 L 98.49530458425271 -0.5 Z"/><text text-anchor="middle" pointer-events="none" font-size="8px" fill="#000000" x="71.27069520925271" y="3" font-family="sans-serif">PREF_TERM</text></g><g class="relationship" transform="translate(-129.93165203073858 -476.8708596684243) rotate(265.0445573524295)"><path class="outline" fill="#A5ABB6" stroke="none" d="M 25 0.5 L 27.122957393838583 0.5 L 27.122957393838583 -0.5 L 25 -0.5 Z M 77.13076989383859 0.5 L 79.25372728767717 0.5 L 79.25372728767717 3.5 L 86.25372728767717 0 L 79.25372728767717 -3.5 L 79.25372728767717 -0.5 L 77.13076989383859 -0.5 Z"/><text text-anchor="middle" pointer-events="none" font-size="8px" fill="#000000" x="52.12686364383858" y="3" transform="rotate(180 52.12686364383858 0)" font-family="sans-serif">PREF_TE…</text></g><g class="relationship" transform="translate(296.2880205008376 -130.14484031120006) rotate(296.2434559719866)"><path class="outline" fill="#A5ABB6" stroke="none" d="M 25 0.5 L 44.41011640119406 0.5 L 44.41011640119406 -0.5 L 25 -0.5 Z M 98.85933515119406 0.5 L 118.26945155238812 0.5 L 118.26945155238812 3.5 L 125.26945155238812 0 L 118.26945155238812 -3.5 L 118.26945155238812 -0.5 L 98.85933515119406 -0.5 Z"/><text text-anchor="middle" pointer-events="none" font-size="8px" fill="#000000" x="71.63472577619406" y="3" font-family="sans-serif">PREF_TERM</text></g><g class="relationship" transform="translate(-466.89179577635514 -125.13655455076517) rotate(217.95059538028147)"><path class="outline" fill="#A5ABB6" stroke="none" d="M 25 0.5 L 67.68879961733187 0.5 L 67.68879961733187 -0.5 L 25 -0.5 Z M 122.13801836733187 0.5 L 164.82681798466373 0.5 L 164.82681798466373 3.5 L 171.82681798466373 0 L 164.82681798466373 -3.5 L 164.82681798466373 -0.5 L 122.13801836733187 -0.5 Z"/><text text-anchor="middle" pointer-events="none" font-size="8px" fill="#000000" x="94.91340899233187" y="3" transform="rotate(180 94.91340899233187 0)" font-family="sans-serif">PREF_TERM</text></g><g class="relationship" transform="translate(-352.7127753865912 -275.52826702043785) rotate(250.71540165304128)"><path class="outline" fill="#A5ABB6" stroke="none" d="M 25 0.5 L 54.79581217594989 0.5 L 54.79581217594989 -0.5 L 25 -0.5 Z M 109.24503092594989 0.5 L 139.04084310189978 0.5 L 139.04084310189978 3.5 L 146.04084310189978 0 L 139.04084310189978 -3.5 L 139.04084310189978 -0.5 L 109.24503092594989 -0.5 Z"/><text text-anchor="middle" pointer-events="none" font-size="8px" fill="#000000" x="82.02042155094989" y="3" transform="rotate(180 82.02042155094989 0)" font-family="sans-serif">PREF_TERM</text></g><g class="relationship" transform="translate(-624.3421562473309 107.79180402029402) rotate(239.9805529941816)"><path class="outline" fill="#A5ABB6" stroke="none" d="M 25 0.5 L 44.74955308186121 0.5 L 44.74955308186121 -0.5 L 25 -0.5 Z M 99.19877183186121 0.5 L 118.94832491372242 0.5 L 118.94832491372242 3.5 L 125.94832491372242 0 L 118.94832491372242 -3.5 L 118.94832491372242 -0.5 L 99.19877183186121 -0.5 Z"/><text text-anchor="middle" pointer-events="none" font-size="8px" fill="#000000" x="71.97416245686121" y="3" transform="rotate(180 71.97416245686121 0)" font-family="sans-serif">PREF_TERM</text></g><g class="relationship" transform="translate(462.08341184615085 -47.6117520141795) rotate(311.58063078161683)"><path class="outline" fill="#A5ABB6" stroke="none" d="M 25 0.5 L 43.05356024735666 0.5 L 43.05356024735666 -0.5 L 25 -0.5 Z M 97.50277899735666 0.5 L 115.55633924471331 0.5 L 115.55633924471331 3.5 L 122.55633924471331 0 L 115.55633924471331 -3.5 L 115.55633924471331 -0.5 L 97.50277899735666 -0.5 Z"/><text text-anchor="middle" pointer-events="none" font-size="8px" fill="#000000" x="70.27816962235666" y="3" font-family="sans-serif">PREF_TERM</text></g><g class="relationship" transform="translate(-651.408257003706 297.97992470602094) rotate(206.61464348141214)"><path class="outline" fill="#A5ABB6" stroke="none" d="M 25 0.5 L 77.04238103439539 0.5 L 77.04238103439539 -0.5 L 25 -0.5 Z M 131.4915997843954 0.5 L 183.53398081879078 0.5 L 183.53398081879078 3.5 L 190.53398081879078 0 L 183.53398081879078 -3.5 L 183.53398081879078 -0.5 L 131.4915997843954 -0.5 Z"/><text text-anchor="middle" pointer-events="none" font-size="8px" fill="#000000" x="104.26699040939539" y="3" transform="rotate(180 104.26699040939539 0)" font-family="sans-serif">PREF_TERM</text></g><g class="relationship" transform="translate(403.9521123638213 349.4586630419971) rotate(363.90687855947635)"><path class="outline" fill="#A5ABB6" stroke="none" d="M 25 0.5 L 25.427931794600667 0.5 L 25.427931794600667 -0.5 L 25 -0.5 Z M 75.43574429460067 0.5 L 75.86367608920133 0.5 L 75.86367608920133 3.5 L 82.86367608920133 0 L 75.86367608920133 -3.5 L 75.86367608920133 -0.5 L 75.43574429460067 -0.5 Z"/><text text-anchor="middle" pointer-events="none" font-size="8px" fill="#000000" x="50.43183804460067" y="3" font-family="sans-serif">PREF_TE…</text></g><g class="relationship" transform="translate(204.92479246523436 281.13939747590103) rotate(480.5212014412107)"><path class="outline" fill="#A5ABB6" stroke="none" d="M 24.018736134675446,-6.953439040707552 L 24.277555179777966,-5.987513214418485 A 471.9154194514268 471.9154194514268 0 0 1 98.90076996318359,-19.66926284168244 L 98.80007928538501,-20.66418062090065 A 472.9154194514268 472.9154194514268 0 0 0 24.018736134675446,-6.953439040707552 Z M 188.36825267807154,-21.20337768652547 L 188.2795475998667,-20.207319751914895 A 471.9154194514268 471.9154194514268 0 0 1 263.06207517212636,-7.424987125291236 L 262.3205620728318,-4.518071522186363 L 269.96846376258685,-6.179275827454722 L 264.0507593045191,-11.300874596097731 L 263.30924620522455,-8.393958992992859 A 472.9154194514268 472.9154194514268 0 0 0 188.36825267807154,-21.20337768652547"/><text text-anchor="middle" pointer-events="none" font-size="8px" fill="#000000" x="143.57438172356046" y="-19.559081270440856" transform="rotate(180 143.57438172356046 -22.559081270440856)" font-family="sans-serif">process_involves_gene</text></g><g class="relationship" transform="translate(204.92479246523436 281.13939747590103) rotate(323.0002642465123)"><path class="outline" fill="#A5ABB6" stroke="none" d="M 24.018736134675446,6.953439040707552 L 24.277555179777966,5.987513214418485 A 270.74989871396986 270.74989871396986 0 0 0 47.386600081506664,11.108435593677427 L 47.213133034729886,12.093275267777983 A 271.74989871396986 271.74989871396986 0 0 1 24.018736134675446,6.953439040707552 Z M 136.57625102790715,12.912791092155885 L 136.42087483162817,11.924935719325504 A 270.74989871396986 270.74989871396986 0 0 0 159.6199493402624,7.2286878311343274 L 158.89676719810382,4.317157719790311 L 166.53404995709155,6.026517851321606 L 160.58419219647385,11.110727979593017 L 159.86101005431527,8.199197868249 A 271.74989871396986 271.74989871396986 0 0 1 136.57625102790715,12.912791092155885"/><text text-anchor="middle" pointer-events="none" font-size="8px" fill="#000000" x="91.86535837106753" y="18.701686902328504" font-family="sans-serif">process_involves_gene</text></g><g class="relationship" transform="translate(44.31655941059365 375.3190209263121) rotate(329.6129175661462)"><path class="outline" fill="#A5ABB6" stroke="none" d="M 24.018736134675446,-6.953439040707552 L 24.277555179777966,-5.987513214418485 A 261.74026103965326 261.74026103965326 0 0 1 80.80417371548491,-14.66564191354405 L 80.76131922360466,-15.664723237824376 A 262.74026103965326 262.74026103965326 0 0 0 24.018736134675446,-6.953439040707552 Z M 98.34932974041884,-15.829871655509521 L 98.32524355694459,-14.830161769709832 A 261.74026103965326 261.74026103965326 0 0 1 155.00485311999458,-7.215020235888777 L 154.28294736583732,-4.303173385157329 L 161.91948006406082,-6.015881284643763 L 155.9673941255376,-11.097482703530707 L 155.24548837138033,-8.18563585279926 A 262.74026103965326 262.74026103965326 0 0 0 98.34932974041884,-15.829871655509521"/><text text-anchor="middle" pointer-events="none" font-size="8px" fill="#000000" x="89.5586368482023" y="-12.394536383548825" font-family="sans-serif">AQ</text></g><g class="relationship" transform="translate(20.93469440087856 -159.40854956431153) rotate(303.7409564333184)"><path class="outline" fill="#A5ABB6" stroke="none" d="M 24.018736134675446,-6.953439040707552 L 24.277555179777966,-5.987513214418485 A 232.86522066371953 232.86522066371953 0 0 1 28.69725105978815,-7.125466971128105 L 28.457411645338134,-8.096279545869635 A 233.86522066371953 233.86522066371953 0 0 0 24.018736134675446,-6.953439040707552 Z M 136.00952465236145,-9.189843830363174 L 135.7894747651796,-8.214355210669794 A 232.86522066371953 232.86522066371953 0 0 1 140.23139538715623,-7.1665042612274075 L 139.51402051255417,-4.253537854059336 L 147.1478794829821,-5.97812395501725 L 141.187895219959,-11.050459470784837 L 140.47052034535693,-8.137493063616764 A 233.86522066371953 233.86522066371953 0 0 0 136.00952465236145,-9.189843830363174"/><text text-anchor="middle" pointer-events="none" font-size="8px" fill="#000000" x="82.17482985825872" y="-11.410141086755857" font-family="sans-serif">median_expression_in_gene</text></g><g class="relationship" transform="translate(-111.75041684590224 -0.5034653092203882) rotate(309.86174670993023)"><path class="outline" fill="#A5ABB6" stroke="none" d="M 24.018736134675446,6.953439040707552 L 24.277555179777966,5.987513214418485 A 302.40204970737005 302.40204970737005 0 0 0 41.46759469990009,10.059370370502677 L 41.26562063827819,11.038761241622069 A 303.40204970737005 303.40204970737005 0 0 1 24.018736134675446,6.953439040707552 Z M 158.779306662495,12.034666701988556 L 158.59396071049946,11.05199336965535 A 302.40204970737005 302.40204970737005 0 0 0 175.8505425778329,7.272064579462695 L 175.12330963354546,4.361543621843075 L 182.7629636363266,6.060274535728622 L 176.82018650354948,11.152759189622188 L 176.09295355926204,8.242238232002569 A 303.40204970737005 303.40204970737005 0 0 1 158.779306662495,12.034666701988556"/><text text-anchor="middle" pointer-events="none" font-size="8px" fill="#000000" x="99.97802158955844" y="19.78073621113333" font-family="sans-serif">tissue_has_median_expression</text></g><g class="relationship" transform="translate(-111.75041684590224 -0.5034653092203882) rotate(344.88977451284984)"><path class="outline" fill="#A5ABB6" stroke="none" d="M 24.018736134675446,6.953439040707552 L 24.277555179777966,5.987513214418485 A 313.90524473315935 313.90524473315935 0 0 0 44.38543185907503,10.672462972859535 L 44.19066996821467,11.653313525119358 A 314.90524473315935 314.90524473315935 0 0 1 24.018736134675446,6.953439040707552 Z M 161.7510776434372,12.622852139785323 L 161.57251959237396,11.638922761018478 A 313.90524473315935 313.90524473315935 0 0 0 181.7549308971736,7.2862531534299375 L 181.02637295204255,4.376063585620585 L 188.66679954625062,6.071316209425647 L 182.7263414906817,11.166505910509073 L 181.99778354555065,8.256316342699721 A 314.90524473315935 314.90524473315935 0 0 1 161.7510776434372,12.622852139785323"/><text text-anchor="middle" pointer-events="none" font-size="8px" fill="#000000" x="102.92935103771642" y="20.172883378733047" font-family="sans-serif">tissue_has_median_expression</text></g><g class="relationship" transform="translate(-111.75041684590224 -0.5034653092203882) rotate(269.11773627447224)"><path class="outline" fill="#A5ABB6" stroke="none" d="M 24.018736134675446,6.953439040707552 L 24.277555179777966,5.987513214418485 A 365.7098445332222 365.7098445332222 0 0 0 57.577006049650926,13.265589428171893 L 57.409241296270785,14.251416485785569 A 366.7098445332222 366.7098445332222 0 0 1 24.018736134675446,6.953439040707552 Z M 175.1261530015589,15.117361594777492 L 174.9729094333459,14.129173146756898 A 365.7098445332222 365.7098445332222 0 0 0 208.37582829559508,7.341770617786565 L 207.64208594460666,4.432883861247905 L 215.28552111935002,6.114519591570057 L 209.3541514302463,11.220286293171446 L 208.62040907925788,8.311399536632786 A 366.7098445332222 366.7098445332222 0 0 1 175.1261530015589,15.117361594777492"/><text text-anchor="middle" pointer-events="none" font-size="8px" fill="#000000" x="116.23640051141494" y="21.938865998452457" transform="rotate(180 116.23640051141494 18.938865998452457)" font-family="sans-serif">tissue_has_median_expression</text></g><g class="relationship" transform="translate(-111.75041684590224 -0.5034653092203882) rotate(223.93311038814323)"><path class="outline" fill="#A5ABB6" stroke="none" d="M 24.018736134675446,6.953439040707552 L 24.277555179777966,5.987513214418485 A 280.4170497923162 280.4170497923162 0 0 0 35.90645858320732,8.838829373486135 L 35.68910956787668,9.814923326717519 A 281.4170497923162 281.4170497923162 0 0 1 24.018736134675446,6.953439040707552 Z M 153.09617892740664,10.865295423351313 L 152.89632838270288,9.885469030676745 A 280.4170497923162 280.4170497923162 0 0 0 164.57438443891965,7.242666549766204 L 163.84989686316507,4.33146100007081 L 171.48794531750133,6.037396464621429 L 165.5403678732591,11.124273949360063 L 164.81588029750452,8.21306839966467 A 281.4170497923162 281.4170497923162 0 0 1 153.09617892740664,10.865295423351313"/><text text-anchor="middle" pointer-events="none" font-size="8px" fill="#000000" x="94.34172894507978" y="19.031251093764126" transform="rotate(180 94.34172894507978 16.031251093764126)" font-family="sans-serif">tissue_has_median_expression</text></g><g class="relationship" transform="translate(-113.12969961510375 178.42553843417932) rotate(270.4416585043498)"><path class="outline" fill="#A5ABB6" stroke="none" d="M 24.018736134675446,-6.953439040707552 L 24.277555179777966,-5.987513214418485 A 247.5655161041599 247.5655161041599 0 0 1 77.17913485844707,-14.170843940604328 L 77.13400300415837,-15.16982497932753 A 248.5655161041599 248.5655161041599 0 0 0 24.018736134675446,-6.953439040707552 Z M 94.72347806756696,-15.34143595748904 L 94.69784598267739,-14.341764513351421 A 247.5655161041599 247.5655161041599 0 0 1 147.74902082834012,-7.192157407528341 L 147.02925020634632,-4.279782045093988 L 154.66452511101926,-5.998088516615153 L 148.70871499099854,-11.075324557440812 L 147.98894436900474,-8.162949195006458 A 248.5655161041599 248.5655161041599 0 0 0 94.72347806756696,-15.34143595748904"/><text text-anchor="middle" pointer-events="none" font-size="8px" fill="#000000" x="85.93210000150364" y="-11.911297968521524" font-family="sans-serif">AQ</text></g><g class="relationship" transform="translate(-115.43859365596738 -240.0013128150427) rotate(266.4986754813281)"><path class="outline" fill="#A5ABB6" stroke="none" d="M 24.018736134675446,-6.953439040707552 L 24.277555179777966,-5.987513214418485 A 361.40323413615437 361.40323413615437 0 0 1 61.29237021785679,-13.854566992318041 L 61.13597088442773,-14.842260896573293 A 362.40323413615437 362.40323413615437 0 0 0 24.018736134675446,-6.953439040707552 Z M 169.17531986639614,-15.644224601540259 L 169.03360003640358,-14.65431779290276 A 361.40323413615437 361.40323413615437 0 0 1 206.16112236604957,-7.337614087736975 L 205.42776816039594,-4.428629452327199 L 213.07097888294797,-6.111285047113495 L 207.13892797358773,-11.216260268283344 L 206.4055737679341,-8.307275632873568 A 362.40323413615437 362.40323413615437 0 0 0 169.17531986639614,-15.644224601540259"/><text text-anchor="middle" pointer-events="none" font-size="8px" fill="#000000" x="115.12930291234768" y="-15.792059911749732" transform="rotate(180 115.12930291234768 -18.792059911749732)" font-family="sans-serif">median_expression_in_gene</text></g><g class="relationship" transform="translate(93.8065487198733 -56.0063493942729) rotate(339.889820425743)"><path class="outline" fill="#A5ABB6" stroke="none" d="M 24.018736134675446,-6.953439040707552 L 24.277555179777966,-5.987513214418485 A 319.18454448720036 319.18454448720036 0 0 1 50.5217773550256,-11.846955224701446 L 50.34518103225887,-12.83123858775565 A 320.18454448720036 320.18454448720036 0 0 0 24.018736134675446,-6.953439040707552 Z M 158.28995123228862,-13.710630395071348 L 158.12941457328412,-12.723600516538909 A 319.18454448720036 319.18454448720036 0 0 1 184.46561709908207,-7.2925145500142055 L 183.73647443622275,-4.382471427103749 L 191.37724149634968,-6.076188857160902 L 185.4378073162278,-11.172572047228147 L 184.7086646533685,-8.26252892431769 A 320.18454448720036 320.18454448720036 0 0 0 158.28995123228862,-13.710630395071348"/><text text-anchor="middle" pointer-events="none" font-size="8px" fill="#000000" x="104.28431202152338" y="-14.35285487467388" font-family="sans-serif">median_expression_in_gene</text></g><g class="relationship" transform="translate(-401.3875387040858 66.08162393034463) rotate(251.09044160731304)"><path class="outline" fill="#A5ABB6" stroke="none" d="M 24.018736134675446,6.953439040707552 L 24.277555179777966,5.987513214418485 A 292.8640196756451 292.8640196756451 0 0 0 49.94040536853996,11.643269474035378 L 49.769213510338666,12.6285071852937 A 293.8640196756451 293.8640196756451 0 0 1 24.018736134675446,6.953439040707552 Z M 145.3540337721186,13.457535470283005 L 145.19995675130815,12.469476630102804 A 292.8640196756451 292.8640196756451 0 0 0 170.95704613684373,7.259696878081762 L 170.23096815923932,4.348887579890295 L 177.8699474955579,6.050649813370066 L 171.92515010698295,11.14077594233705 L 171.19907212937855,8.229966644145584 A 293.8640196756451 293.8640196756451 0 0 1 145.3540337721186,13.457535470283005"/><text text-anchor="middle" pointer-events="none" font-size="8px" fill="#000000" x="97.53202577212956" y="19.45557919727412" transform="rotate(180 97.53202577212956 16.45557919727412)" font-family="sans-serif">chr_band_contains_gene</text></g><g class="relationship" transform="translate(-246.3084472356778 258.90554461484993) rotate(231.19193756456264)"><path class="outline" fill="#A5ABB6" stroke="none" d="M 24.018736134675446,6.953439040707552 L 24.277555179777966,5.987513214418485 A 381.1168237997347 381.1168237997347 0 0 0 69.18482297471272,15.166876403615106 L 69.04383464447398,16.156887661498843 A 382.1168237997347 382.1168237997347 0 0 1 24.018736134675446,6.953439040707552 Z M 171.39443005035446,16.88633280475159 L 171.26756679952928,15.8944125884085 A 381.1168237997347 381.1168237997347 0 0 0 216.30110751261694,7.356050906689594 L 215.56603164537927,4.447500843616107 L 223.21023697099469,6.125632226980601 L 217.28120866893386,11.234117657454242 L 216.5461328016962,8.325567594380756 A 382.1168237997347 382.1168237997347 0 0 1 171.39443005035446,16.88633280475159"/><text text-anchor="middle" pointer-events="none" font-size="8px" fill="#000000" x="120.19816170577414" y="22.464062695462587" transform="rotate(180 120.19816170577414 19.464062695462587)" font-family="sans-serif">gene_located_in_chr_band</text></g><g class="relationship" transform="translate(-252.7183886953212 -136.31696653195664) rotate(234.3106088544592)"><path class="outline" fill="#A5ABB6" stroke="none" d="M 24.018736134675446,-6.953439040707552 L 24.277555179777966,-5.987513214418485 A 232.82498752380502 232.82498752380502 0 0 1 28.687178957863736,-7.122970494013089 L 28.44729956277466,-8.093773190657316 A 233.82498752380502 233.82498752380502 0 0 0 24.018736134675446,-6.953439040707552 Z M 135.99911688030681,-9.187460586505495 L 135.77902910740198,-8.211980513814183 A 232.82498752380502 232.82498752380502 0 0 1 140.2108313997242,-7.166431117653851 L 139.49346335604716,-4.253463028245566 L 147.12731828228974,-5.978067030642109 L 141.16732212462696,-11.050388570198232 L 140.4499540809499,-8.137420480789947 A 233.82498752380502 233.82498752380502 0 0 0 135.99911688030681,-9.187460586505495"/><text text-anchor="middle" pointer-events="none" font-size="8px" fill="#000000" x="82.16455225517055" y="-11.408769473661152" transform="rotate(180 82.16455225517055 -14.408769473661152)" font-family="sans-serif">median_expression_in_gene</text></g><g class="relationship" transform="translate(-455.5602693268682 232.10646466513023) rotate(216.37314267266197)"><path class="outline" fill="#A5ABB6" stroke="none" d="M 24.018736134675446,-6.953439040707552 L 24.277555179777966,-5.987513214418485 A 307.4805594605361 307.4805594605361 0 0 1 53.66268096881324,-12.339643387591025 L 53.49942935028426,-13.326227853841942 A 308.4805594605361 308.4805594605361 0 0 0 24.018736134675446,-6.953439040707552 Z M 149.11624676290634,-14.126806647444141 L 148.96953778754948,-13.137626948628167 A 307.4805594605361 307.4805594605361 0 0 1 178.45690641546494,-7.278423352934992 L 177.7290796554961,-4.36805083253949 L 185.3690800897159,-6.065222999740294 L 179.4273420954234,-11.158920046795663 L 178.69951533545455,-8.24854752640016 A 308.4805594605361 308.4805594605361 0 0 0 149.11624676290634,-14.126806647444141"/><text text-anchor="middle" pointer-events="none" font-size="8px" fill="#000000" x="101.28081618057382" y="-13.953864522817184" transform="rotate(180 101.28081618057382 -16.953864522817184)" font-family="sans-serif">chr_band_contains_gene</text></g><g class="relationship" transform="translate(-287.8882740397768 354.4571374581322) rotate(216.1183224978488)"><path class="outline" fill="#A5ABB6" stroke="none" d="M 24.018736134675446,-6.953439040707552 L 24.277555179777966,-5.987513214418485 A 303.4716117249269 303.4716117249269 0 0 1 49.357721843881656,-11.581424369162391 L 49.181546992486574,-12.565783257848807 A 304.4716117249269 304.4716117249269 0 0 0 24.018736134675446,-6.953439040707552 Z M 151.3877716406816,-13.429744075367637 L 151.22826257044875,-12.442547612391081 A 303.4716117249269 303.4716117249269 0 0 1 176.39941045226345,-7.273416523107238 L 175.6720512562065,-4.362927114105483 L 183.31177893927705,-6.06132663380797 L 177.36922271367274,-11.15406906844291 L 176.64186351761577,-8.243579659441156 A 304.4716117249269 304.4716117249269 0 0 0 151.3877716406816,-13.429744075367637"/><text text-anchor="middle" pointer-events="none" font-size="8px" fill="#000000" x="100.25237320426787" y="-13.817198045453893" transform="rotate(180 100.25237320426787 -16.817198045453893)" font-family="sans-serif">gene_located_in_chr_band</text></g><g class="relationship" transform="translate(276.8358207809001 18.242525815338638) rotate(340.430040784761)"><path class="outline" fill="#A5ABB6" stroke="none" d="M 24.018736134675446,6.953439040707552 L 24.277555179777966,5.987513214418485 A 282.08947973596804 282.08947973596804 0 0 0 47.2006951187914,11.117218387048524 L 47.02313801922641,12.101328887141904 A 283.08947973596804 283.08947973596804 0 0 1 24.018736134675446,6.953439040707552 Z M 142.58086399157145,12.952625850449635 L 142.42086801052932,11.965508184692226 A 282.08947973596804 282.08947973596804 0 0 0 165.4317605897202,7.245016416811387 L 164.70705356737756,4.333865487751323 L 172.3452305945841,6.039225186188584 L 166.39803661951038,11.126550988891472 L 165.67332959716774,8.215400059831408 A 283.08947973596804 283.08947973596804 0 0 1 142.58086399157145,12.952625850449635"/><text text-anchor="middle" pointer-events="none" font-size="8px" fill="#000000" x="94.77027448514082" y="19.088265919739285" font-family="sans-serif">chr_band_contains_gene</text></g><g class="relationship" transform="translate(66.20021453057771 215.3863608594103) rotate(316.8949941676045)"><path class="outline" fill="#A5ABB6" stroke="none" d="M 24.018736134675446,6.953439040707552 L 24.277555179777966,5.987513214418485 A 460.86884298610204 460.86884298610204 0 0 0 89.64693822467865,18.527059460810108 L 89.5299586292151,19.5201937791403 A 461.86884298610204 461.86884298610204 0 0 1 24.018736134675446,6.953439040707552 Z M 191.9554225790748,20.148676550413654 L 191.85063907987353,19.154181493465103 A 460.86884298610204 460.86884298610204 0 0 0 257.3689794771283,7.417762477181561 L 256.62814100103964,4.510674870598868 L 264.275656971836,6.173653967405218 L 258.35676411191315,11.293879285958482 L 257.6159256358245,8.386791679375792 A 461.86884298610204 461.86884298610204 0 0 1 191.9554225790748,20.148676550413654"/><text text-anchor="middle" pointer-events="none" font-size="8px" fill="#000000" x="140.7282825497193" y="25.182553087203075" font-family="sans-serif">gene_located_in_chr_band</text></g><g class="relationship" transform="translate(-481.4108926406615 419.8682515592477) rotate(215.6405714164331)"><path class="outline" fill="#A5ABB6" stroke="none" d="M 24.018736134675446,6.953439040707552 L 24.277555179777966,5.987513214418485 A 306.6166677806426 306.6166677806426 0 0 0 66.19644161008156,14.140878035518426 L 66.07433687582758,15.133395256463643 A 307.6166677806426 307.6166677806426 0 0 1 24.018736134675446,6.953439040707552 Z M 136.06915125099528,15.720649285522313 L 135.9637169026626,14.72622301968272 A 306.6166677806426 306.6166677806426 0 0 0 178.01350553894875,7.277352427016191 L 177.2857787875295,4.36695489828085 L 184.92572089790107,6.064389595160486 L 178.9838078741744,11.157882465329978 L 178.25608112275515,8.247484936594638 A 307.6166677806426 307.6166677806426 0 0 1 136.06915125099528,15.720649285522313"/><text text-anchor="middle" pointer-events="none" font-size="8px" fill="#000000" x="101.05918099797414" y="19.92441418276178" transform="rotate(180 101.05918099797414 16.92441418276178)" font-family="sans-serif">coexpressed_with</text></g><g class="relationship" transform="translate(-303.66139281875587 511.71482151414864) rotate(207.32626460670372)"><path class="outline" fill="#A5ABB6" stroke="none" d="M 24.018736134675446,6.953439040707552 L 24.277555179777966,5.987513214418485 A 288.8646239332375 288.8646239332375 0 0 0 61.65913168312469,13.401308096279706 L 61.52972127240029,14.392899214430827 A 289.8646239332375 289.8646239332375 0 0 1 24.018736134675446,6.953439040707552 Z M 131.51209733071656,15.005887663626197 L 131.4000764998196,14.012181805011494 A 288.8646239332375 288.8646239332375 0 0 0 168.90578497874293,7.2543383679466045 L 168.18020741181166,4.343404292024223 L 175.81889408371705,6.046479724427353 L 169.8732217346513,11.13558380250978 L 169.14764416772005,8.224649726587398 A 289.8646239332375 289.8646239332375 0 0 1 131.51209733071656,15.005887663626197"/><text text-anchor="middle" pointer-events="none" font-size="8px" fill="#000000" x="96.50672079754102" y="19.319236725070937" transform="rotate(180 96.50672079754102 16.319236725070937)" font-family="sans-serif">coexpressed_with</text></g><g class="relationship" transform="translate(240.36964802380595 471.2910761526426) rotate(323.3221166456917)"><path class="outline" fill="#A5ABB6" stroke="none" d="M 24.018736134675446,6.953439040707552 L 24.277555179777966,5.987513214418485 A 296.45278099358296 296.45278099358296 0 0 0 50.85375586552163,11.816002026357808 L 50.68458415176365,12.801588618831659 A 297.45278099358296 297.45278099358296 0 0 1 24.018736134675446,6.953439040707552 Z M 146.27773427738785,13.623450248223492 L 146.1255334700811,12.63510065710949 A 296.45278099358296 296.45278099358296 0 0 0 172.7980189836734,7.264417158053615 L 172.07150019843687,4.353717851237736 L 179.7107371637832,6.054323210304361 L 173.76671069732208,11.145349567141455 L 173.04019191208556,8.234650260325575 A 297.45278099358296 297.45278099358296 0 0 1 146.27773427738785,13.623450248223492"/><text text-anchor="middle" pointer-events="none" font-size="8px" fill="#000000" x="98.45222517889555" y="19.577922461972776" font-family="sans-serif">chr_band_contains_gene</text></g><g class="relationship" transform="translate(55.516892320282466 534.5691898809852) rotate(300.5212014412107)"><path class="outline" fill="#A5ABB6" stroke="none" d="M 24.018736134675446,-6.953439040707552 L 24.277555179777966,-5.987513214418485 A 471.9154194514268 471.9154194514268 0 0 1 89.84699279580329,-18.664607478615324 L 89.72711694881082,-19.657396369219896 A 472.9154194514268 472.9154194514268 0 0 0 24.018736134675446,-6.953439040707552 Z M 197.45267859912474,-20.305900235431125 L 197.34476411148344,-19.311740055501843 A 471.9154194514268 471.9154194514268 0 0 1 263.06207517212636,-7.424987125291236 L 262.3205620728318,-4.518071522186363 L 269.96846376258685,-6.179275827454722 L 264.0507593045191,-11.300874596097731 L 263.30924620522455,-8.393958992992859 A 472.9154194514268 472.9154194514268 0 0 0 197.45267859912474,-20.305900235431125"/><text text-anchor="middle" pointer-events="none" font-size="8px" fill="#000000" x="143.57438172356046" y="-19.559081270440856" font-family="sans-serif">gene_plays_role_in_process</text></g><g class="relationship" transform="translate(55.516892320282466 534.5691898809852) rotate(341.10308803081807)"><path class="outline" fill="#A5ABB6" stroke="none" d="M 24.018736134675446,-6.953439040707552 L 24.277555179777966,-5.987513214418485 A 279.7053049075508 279.7053049075508 0 0 1 43.320510493463004,-10.383188634014004 L 43.12977365838499,-11.364829841250298 A 280.7053049075508 280.7053049075508 0 0 0 24.018736134675446,-6.953439040707552 Z M 145.26395715472492,-12.280212562646454 L 145.09084556331888,-11.295310345712778 A 279.7053049075508 279.7053049075508 0 0 1 164.209528376629,-7.24166051408192 L 163.48513475142167,-4.330431585303052 L 171.12312814798094,-6.03661354339458 L 165.17538654357216,-11.123299085787078 L 164.45099291836482,-8.21207015700821 A 280.7053049075508 280.7053049075508 0 0 0 145.26395715472492,-12.280212562646454"/><text text-anchor="middle" pointer-events="none" font-size="8px" fill="#000000" x="94.15936192307149" y="-13.006986971644153" font-family="sans-serif">gene_located_in_chr_band</text></g></g><g class="layer nodes"><g class="node" aria-label="graph-node32975176" transform="translate(-219.51258772494776,112.3161304432819)"><circle class="outline" cx="0" cy="0" r="25" fill="#F79767" stroke="#f36924" stroke-width="2px"/><text class="caption" text-anchor="middle" pointer-events="none" x="0" y="5" font-size="10px" fill="#FFFFFF" font-family="sans-serif"> HP:0001…</text></g><g class="node" aria-label="graph-node20223818" transform="translate(501.788909171581,132.79411271146117)"><circle class="outline" cx="0" cy="0" r="25" fill="#57C7E3" stroke="#23b3d7" stroke-width="2px"/><text class="caption" text-anchor="middle" pointer-events="none" x="0" y="0" font-size="10px" fill="#2A2C34" font-family="sans-serif"> VAV2</text><text class="caption" text-anchor="middle" pointer-events="none" x="0" y="10" font-size="10px" fill="#2A2C34" font-family="sans-serif"> gene</text></g><g class="node" aria-label="graph-node29285625" transform="translate(188.4202140644533,-432.8744422510424)"><circle class="outline" cx="0" cy="0" r="25" fill="#57C7E3" stroke="#23b3d7" stroke-width="2px"/><text class="caption" text-anchor="middle" pointer-events="none" x="0" y="5" font-size="10px" fill="#2A2C34" font-family="sans-serif"> RNU6-1…</text></g><g class="node" aria-label="graph-node23975026" transform="translate(-139.5418606084564,-587.7087400455481)"><circle class="outline" cx="0" cy="0" r="25" fill="#57C7E3" stroke="#23b3d7" stroke-width="2px"/><text class="caption" text-anchor="middle" pointer-events="none" x="0" y="5" font-size="10px" fill="#2A2C34" font-family="sans-serif"> RNU6-1…</text></g><g class="node" aria-label="graph-node21790250" transform="translate(362.73510594696404,-264.92500541560514)"><circle class="outline" cx="0" cy="0" r="25" fill="#57C7E3" stroke="#23b3d7" stroke-width="2px"/><text class="caption" text-anchor="middle" pointer-events="none" x="0" y="0" font-size="10px" fill="#2A2C34" font-family="sans-serif"> STX8P1</text><text class="caption" text-anchor="middle" pointer-events="none" x="0" y="10" font-size="10px" fill="#2A2C34" font-family="sans-serif"> gene</text></g><g class="node" aria-label="graph-node22727340" transform="translate(-622.0978764190291,-246.18145865460477)"><circle class="outline" cx="0" cy="0" r="25" fill="#57C7E3" stroke="#23b3d7" stroke-width="2px"/><text class="caption" text-anchor="middle" pointer-events="none" x="0" y="0" font-size="10px" fill="#2A2C34" font-family="sans-serif"> MIR6761</text><text class="caption" text-anchor="middle" pointer-events="none" x="0" y="10" font-size="10px" fill="#2A2C34" font-family="sans-serif"> gene</text></g><g class="node" aria-label="graph-node20403534" transform="translate(-409.20084020545585,-436.97196786388497)"><circle class="outline" cx="0" cy="0" r="25" fill="#57C7E3" stroke="#23b3d7" stroke-width="2px"/><text class="caption" text-anchor="middle" pointer-events="none" x="0" y="5" font-size="10px" fill="#2A2C34" font-family="sans-serif"> RNU6-3…</text></g><g class="node" aria-label="graph-node27091578" transform="translate(-699.8606843163813,-22.907655475691506)"><circle class="outline" cx="0" cy="0" r="25" fill="#57C7E3" stroke="#23b3d7" stroke-width="2px"/><text class="caption" text-anchor="middle" pointer-events="none" x="0" y="5" font-size="10px" fill="#2A2C34" font-family="sans-serif"> RAP2C-…</text></g><g class="node" aria-label="graph-node20786554" transform="translate(560.0126257534797,-157.98721266913464)"><circle class="outline" cx="0" cy="0" r="25" fill="#57C7E3" stroke="#23b3d7" stroke-width="2px"/><text class="caption" text-anchor="middle" pointer-events="none" x="0" y="0" font-size="10px" fill="#2A2C34" font-family="sans-serif"> RAP2CP1</text><text class="caption" text-anchor="middle" pointer-events="none" x="0" y="10" font-size="10px" fill="#2A2C34" font-family="sans-serif"> gene</text></g><g class="node" aria-label="graph-node27043734" transform="translate(-844.1042077992856,201.42337425716516)"><circle class="outline" cx="0" cy="0" r="25" fill="#57C7E3" stroke="#23b3d7" stroke-width="2px"/><text class="caption" text-anchor="middle" pointer-events="none" x="0" y="0" font-size="10px" fill="#2A2C34" font-family="sans-serif"> CICP23</text><text class="caption" text-anchor="middle" pointer-events="none" x="0" y="10" font-size="10px" fill="#2A2C34" font-family="sans-serif"> gene</text></g><g class="node" aria-label="graph-node29112114" transform="translate(511.5651247218361,356.8079616962833)"><circle class="outline" cx="0" cy="0" r="25" fill="#57C7E3" stroke="#23b3d7" stroke-width="2px"/><text class="caption" text-anchor="middle" pointer-events="none" x="0" y="5" font-size="10px" fill="#2A2C34" font-family="sans-serif"> RNU6-7…</text></g><g class="node" aria-label="graph-node3714827" transform="translate(357.30242242055783,166.31571909407552)"><circle class="outline" cx="0" cy="0" r="25" fill="#C990C0" stroke="#b261a5" stroke-width="2px"/><text class="caption" text-anchor="middle" pointer-events="none" x="0" y="5" font-size="10px" fill="#FFFFFF" font-family="sans-serif"> C0812239</text></g><g class="node" aria-label="graph-node3138649" transform="translate(-125.90472066595382,423.95876412786663)"><circle class="outline" cx="0" cy="0" r="25" fill="#C990C0" stroke="#b261a5" stroke-width="2px"/><text class="caption" text-anchor="middle" pointer-events="none" x="0" y="5" font-size="10px" fill="#FFFFFF" font-family="sans-serif"> C0018817</text></g><g class="node" aria-label="graph-node2041321" transform="translate(116.14948942671407,-301.95626242625286)"><circle class="outline" cx="0" cy="0" r="25" fill="#C990C0" stroke="#b261a5" stroke-width="2px"/><text class="caption" text-anchor="middle" pointer-events="none" x="0" y="5" font-size="10px" fill="#FFFFFF" font-family="sans-serif"> C3811051</text></g><g class="node" aria-label="graph-node672576" transform="translate(-129.93165203073858,-476.8708596684243)"><circle class="outline" cx="0" cy="0" r="25" fill="#C990C0" stroke="#b261a5" stroke-width="2px"/><text class="caption" text-anchor="middle" pointer-events="none" x="0" y="5" font-size="10px" fill="#FFFFFF" font-family="sans-serif"> C3812440</text></g><g class="node" aria-label="graph-node3251135" transform="translate(296.2880205008376,-130.14484031120006)"><circle class="outline" cx="0" cy="0" r="25" fill="#C990C0" stroke="#b261a5" stroke-width="2px"/><text class="caption" text-anchor="middle" pointer-events="none" x="0" y="5" font-size="10px" fill="#FFFFFF" font-family="sans-serif"> C3812491</text></g><g class="node" aria-label="graph-node2910540" transform="translate(-466.89179577635514,-125.13655455076517)"><circle class="outline" cx="0" cy="0" r="25" fill="#C990C0" stroke="#b261a5" stroke-width="2px"/><text class="caption" text-anchor="middle" pointer-events="none" x="0" y="5" font-size="10px" fill="#FFFFFF" font-family="sans-serif"> C3812507</text></g><g class="node" aria-label="graph-node3629768" transform="translate(-352.7127753865912,-275.52826702043785)"><circle class="outline" cx="0" cy="0" r="25" fill="#C990C0" stroke="#b261a5" stroke-width="2px"/><text class="caption" text-anchor="middle" pointer-events="none" x="0" y="5" font-size="10px" fill="#FFFFFF" font-family="sans-serif"> C3813029</text></g><g class="node" aria-label="graph-node1530810" transform="translate(-624.3421562473309,107.79180402029402)"><circle class="outline" cx="0" cy="0" r="25" fill="#C990C0" stroke="#b261a5" stroke-width="2px"/><text class="caption" text-anchor="middle" pointer-events="none" x="0" y="5" font-size="10px" fill="#FFFFFF" font-family="sans-serif"> C3813449</text></g><g class="node" aria-label="graph-node4780144" transform="translate(462.08341184615085,-47.6117520141795)"><circle class="outline" cx="0" cy="0" r="25" fill="#C990C0" stroke="#b261a5" stroke-width="2px"/><text class="caption" text-anchor="middle" pointer-events="none" x="0" y="5" font-size="10px" fill="#FFFFFF" font-family="sans-serif"> C3813450</text></g><g class="node" aria-label="graph-node252735" transform="translate(-651.408257003706,297.97992470602094)"><circle class="outline" cx="0" cy="0" r="25" fill="#C990C0" stroke="#b261a5" stroke-width="2px"/><text class="caption" text-anchor="middle" pointer-events="none" x="0" y="5" font-size="10px" fill="#FFFFFF" font-family="sans-serif"> C3813481</text></g><g class="node" aria-label="graph-node3660009" transform="translate(403.9521123638213,349.4586630419971)"><circle class="outline" cx="0" cy="0" r="25" fill="#C990C0" stroke="#b261a5" stroke-width="2px"/><text class="caption" text-anchor="middle" pointer-events="none" x="0" y="5" font-size="10px" fill="#FFFFFF" font-family="sans-serif"> C3813500</text></g><g class="node" aria-label="graph-node2844577" transform="translate(204.92479246523436,281.13939747590103)"><circle class="outline" cx="0" cy="0" r="25" fill="#C990C0" stroke="#b261a5" stroke-width="2px"/><text class="caption" text-anchor="middle" pointer-events="none" x="0" y="5" font-size="10px" fill="#FFFFFF" font-family="sans-serif"> C0037083</text></g><g class="node" aria-label="graph-node3402758" transform="translate(44.31655941059365,375.3190209263121)"><circle class="outline" cx="0" cy="0" r="25" fill="#C990C0" stroke="#b261a5" stroke-width="2px"/><text class="caption" text-anchor="middle" pointer-events="none" x="0" y="5" font-size="10px" fill="#FFFFFF" font-family="sans-serif"> C0017399</text></g><g class="node" aria-label="graph-node7195864" transform="translate(20.93469440087856,-159.40854956431153)"><circle class="outline" cx="0" cy="0" r="25" fill="#C990C0" stroke="#b261a5" stroke-width="2px"/><text class="caption" text-anchor="middle" pointer-events="none" x="0" y="5" font-size="10px" fill="#FFFFFF" font-family="sans-serif"> R1RFW…</text></g><g class="node" aria-label="graph-node2128605" transform="translate(-111.75041684590224,-0.5034653092203882)"><circle class="outline" cx="0" cy="0" r="25" fill="#C990C0" stroke="#b261a5" stroke-width="2px"/><text class="caption" text-anchor="middle" pointer-events="none" x="0" y="5" font-size="10px" fill="#FFFFFF" font-family="sans-serif"> C0038590</text></g><g class="node" aria-label="graph-node215057" transform="translate(-113.12969961510375,178.42553843417932)"><circle class="outline" cx="0" cy="0" r="25" fill="#C990C0" stroke="#b261a5" stroke-width="2px"/><text class="caption" text-anchor="middle" pointer-events="none" x="0" y="5" font-size="10px" fill="#FFFFFF" font-family="sans-serif"> C0205466</text></g><g class="node" aria-label="graph-node7243459" transform="translate(-115.43859365596738,-240.0013128150427)"><circle class="outline" cx="0" cy="0" r="25" fill="#C990C0" stroke="#b261a5" stroke-width="2px"/><text class="caption" text-anchor="middle" pointer-events="none" x="0" y="5" font-size="10px" fill="#FFFFFF" font-family="sans-serif"> R1RFW…</text></g><g class="node" aria-label="graph-node7171718" transform="translate(93.8065487198733,-56.0063493942729)"><circle class="outline" cx="0" cy="0" r="25" fill="#C990C0" stroke="#b261a5" stroke-width="2px"/><text class="caption" text-anchor="middle" pointer-events="none" x="0" y="5" font-size="10px" fill="#FFFFFF" font-family="sans-serif"> R1RFW…</text></g><g class="node" aria-label="graph-node19549339" transform="translate(-401.3875387040858,66.08162393034463)"><circle class="outline" cx="0" cy="0" r="25" fill="#C990C0" stroke="#b261a5" stroke-width="2px"/><text class="caption" text-anchor="middle" pointer-events="none" x="0" y="5" font-size="10px" fill="#FFFFFF" font-family="sans-serif"> TTE4MT…</text></g><g class="node" aria-label="graph-node1665081" transform="translate(-246.3084472356778,258.90554461484993)"><circle class="outline" cx="0" cy="0" r="25" fill="#C990C0" stroke="#b261a5" stroke-width="2px"/><text class="caption" text-anchor="middle" pointer-events="none" x="0" y="5" font-size="10px" fill="#FFFFFF" font-family="sans-serif"> C1420615</text></g><g class="node" aria-label="graph-node7337630" transform="translate(-252.7183886953212,-136.31696653195664)"><circle class="outline" cx="0" cy="0" r="25" fill="#C990C0" stroke="#b261a5" stroke-width="2px"/><text class="caption" text-anchor="middle" pointer-events="none" x="0" y="5" font-size="10px" fill="#FFFFFF" font-family="sans-serif"> R1RFW…</text></g><g class="node" aria-label="graph-node19549474" transform="translate(-455.5602693268682,232.10646466513023)"><circle class="outline" cx="0" cy="0" r="25" fill="#C990C0" stroke="#b261a5" stroke-width="2px"/><text class="caption" text-anchor="middle" pointer-events="none" x="0" y="5" font-size="10px" fill="#FFFFFF" font-family="sans-serif"> TTIyMTIx</text></g><g class="node" aria-label="graph-node3264449" transform="translate(-287.8882740397768,354.4571374581322)"><circle class="outline" cx="0" cy="0" r="25" fill="#C990C0" stroke="#b261a5" stroke-width="2px"/><text class="caption" text-anchor="middle" pointer-events="none" x="0" y="5" font-size="10px" fill="#FFFFFF" font-family="sans-serif"> C1421583</text></g><g class="node" aria-label="graph-node19549349" transform="translate(276.8358207809001,18.242525815338638)"><circle class="outline" cx="0" cy="0" r="25" fill="#C990C0" stroke="#b261a5" stroke-width="2px"/><text class="caption" text-anchor="middle" pointer-events="none" x="0" y="5" font-size="10px" fill="#FFFFFF" font-family="sans-serif"> TTE2MT…</text></g><g class="node" aria-label="graph-node1484481" transform="translate(66.20021453057771,215.3863608594103)"><circle class="outline" cx="0" cy="0" r="25" fill="#C990C0" stroke="#b261a5" stroke-width="2px"/><text class="caption" text-anchor="middle" pointer-events="none" x="0" y="5" font-size="10px" fill="#FFFFFF" font-family="sans-serif"> C2681097</text></g><g class="node" aria-label="graph-node2349033" transform="translate(-481.4108926406615,419.8682515592477)"><circle class="outline" cx="0" cy="0" r="25" fill="#C990C0" stroke="#b261a5" stroke-width="2px"/><text class="caption" text-anchor="middle" pointer-events="none" x="0" y="5" font-size="10px" fill="#FFFFFF" font-family="sans-serif"> C1422960</text></g><g class="node" aria-label="graph-node1987203" transform="translate(-303.66139281875587,511.71482151414864)"><circle class="outline" cx="0" cy="0" r="25" fill="#C990C0" stroke="#b261a5" stroke-width="2px"/><text class="caption" text-anchor="middle" pointer-events="none" x="0" y="5" font-size="10px" fill="#FFFFFF" font-family="sans-serif"> C1333542</text></g><g class="node" aria-label="graph-node19549387" transform="translate(240.36964802380595,471.2910761526426)"><circle class="outline" cx="0" cy="0" r="25" fill="#C990C0" stroke="#b261a5" stroke-width="2px"/><text class="caption" text-anchor="middle" pointer-events="none" x="0" y="5" font-size="10px" fill="#FFFFFF" font-family="sans-serif"> TTY2Mjc=</text></g><g class="node" aria-label="graph-node866388" transform="translate(55.516892320282466,534.5691898809852)"><circle class="outline" cx="0" cy="0" r="25" fill="#C990C0" stroke="#b261a5" stroke-width="2px"/><text class="caption" text-anchor="middle" pointer-events="none" x="0" y="5" font-size="10px" fill="#FFFFFF" font-family="sans-serif"> C1420481</text></g></g></svg>