<svg xmlns="http://www.w3.org/2000/svg" width="545.4386596679688" height="201.788330078125" viewBox="-332.3662414550781 -171.84107971191406 545.4386596679688 201.788330078125"><title>Neo4j Graph Visualization</title><desc>Created using Neo4j (http://www.neo4j.com/)</desc><g class="layer relationships"><g class="relationship" transform="translate(184.0723993461449 -84.33444911323325) rotate(203.09425147957586)"><path class="outline" fill="#A5ABB6" stroke="none" d="M 25 0.5 L 48.7452346335796 0.5 L 48.7452346335796 -0.5 L 25 -0.5 Z M 93.4132033835796 0.5 L 117.1584380171592 0.5 L 117.1584380171592 3.5 L 124.1584380171592 0 L 117.1584380171592 -3.5 L 117.1584380171592 -0.5 L 93.4132033835796 -0.5 Z"/><text text-anchor="middle" pointer-events="none" font-size="8px" fill="#000000" x="71.0792190085796" y="3" transform="rotate(180 71.0792190085796 0)" font-family="sans-serif">MTH_ACR</text></g><g class="relationship" transform="translate(47.40735943648536 0.9472542346482413) rotate(181.22480404936584)"><path class="outline" fill="#A5ABB6" stroke="none" d="M 24.018736134675446,6.953439040707552 L 24.277555179777966,5.987513214418485 A 303.5708060288061 303.5708060288061 0 0 0 64.30705670928106,13.875014291765353 L 64.18009982198335,14.866922527827342 A 304.5708060288061 304.5708060288061 0 0 1 24.018736134675446,6.953439040707552 Z M 136.40339909610447,15.477289388927431 L 136.29322459114627,14.483377129994494 A 303.5708060288061 303.5708060288061 0 0 0 176.45031533457362,7.273541558375535 L 175.72294446205532,4.363055067458254 L 183.3626789588003,6.06142393765241 L 177.420143164598,11.154190212931908 L 176.6927722920797,8.24370372201463 A 304.5708060288061 304.5708060288061 0 0 1 136.40339909610447,15.477289388927431"/><text text-anchor="middle" pointer-events="none" font-size="8px" fill="#000000" x="100.27781803102803" y="19.820579620746855" transform="rotate(180 100.27781803102803 16.820579620746855)" font-family="sans-serif">signature_gene_of</text></g><g class="relationship" transform="translate(47.40735943648536 0.9472542346482413) rotate(328.0350164903757)"><path class="outline" fill="#A5ABB6" stroke="none" d="M 25 0.5 L 62.48884661578974 0.5 L 62.48884661578974 -0.5 L 25 -0.5 Z M 91.60212786578974 0.5 L 129.09097448157948 0.5 L 129.09097448157948 3.5 L 136.09097448157948 0 L 129.09097448157948 -3.5 L 129.09097448157948 -0.5 L 91.60212786578974 -0.5 Z"/><text text-anchor="middle" pointer-events="none" font-size="8px" fill="#000000" x="77.04548724078974" y="3" font-family="sans-serif">CODE</text></g><g class="relationship" transform="translate(47.40735943648536 0.9472542346482413) rotate(269.78483806362976)"><path class="outline" fill="#A5ABB6" stroke="none" d="M 25 0.5 L 41.17006219403066 0.5 L 41.17006219403066 -0.5 L 25 -0.5 Z M 95.61928094403066 0.5 L 111.78934313806133 0.5 L 111.78934313806133 3.5 L 118.78934313806133 0 L 111.78934313806133 -3.5 L 111.78934313806133 -0.5 L 95.61928094403066 -0.5 Z"/><text text-anchor="middle" pointer-events="none" font-size="8px" fill="#000000" x="68.39467156903066" y="3" transform="rotate(180 68.39467156903066 0)" font-family="sans-serif">PREF_TERM</text></g><g class="relationship" transform="translate(-160.16193808069406 -3.4906022848116045) rotate(361.22480404936584)"><path class="outline" fill="#A5ABB6" stroke="none" d="M 24.018736134675446,6.953439040707552 L 24.277555179777966,5.987513214418485 A 303.5708060288061 303.5708060288061 0 0 0 61.226119258501576,13.464635790911643 L 61.08901337996494,14.45519218913978 A 304.5708060288061 304.5708060288061 0 0 1 24.018736134675446,6.953439040707552 Z M 139.50100268899897,15.11786033457463 L 139.38065779498316,14.125128192209786 A 303.5708060288061 303.5708060288061 0 0 0 176.45031533457362,7.273541558375535 L 175.72294446205532,4.363055067458254 L 183.3626789588003,6.06142393765241 L 177.420143164598,11.154190212931908 L 176.6927722920797,8.24370372201463 A 304.5708060288061 304.5708060288061 0 0 1 139.50100268899897,15.11786033457463"/><text text-anchor="middle" pointer-events="none" font-size="8px" fill="#000000" x="100.27781803102803" y="19.820579620746855" font-family="sans-serif">has_signature_gene</text></g><g class="relationship" transform="translate(-160.16193808069406 -3.4906022848116045) rotate(211.6092295962294)"><path class="outline" fill="#A5ABB6" stroke="none" d="M 25 0.5 L 66.0187183824703 0.5 L 66.0187183824703 -0.5 L 25 -0.5 Z M 95.1319996324703 0.5 L 136.1507180149406 0.5 L 136.1507180149406 3.5 L 143.1507180149406 0 L 136.1507180149406 -3.5 L 136.1507180149406 -0.5 L 95.1319996324703 -0.5 Z"/><text text-anchor="middle" pointer-events="none" font-size="8px" fill="#000000" x="80.5753590074703" y="3" transform="rotate(180 80.5753590074703 0)" font-family="sans-serif">CODE</text></g><g class="relationship" transform="translate(-160.16193808069406 -3.4906022848116045) rotate(270.34320516524275)"><path class="outline" fill="#A5ABB6" stroke="none" d="M 25 0.5 L 38.429207790657216 0.5 L 38.429207790657216 -0.5 L 25 -0.5 Z M 92.87842654065722 0.5 L 106.30763433131443 0.5 L 106.30763433131443 3.5 L 113.30763433131443 0 L 106.30763433131443 -3.5 L 106.30763433131443 -0.5 L 92.87842654065722 -0.5 Z"/><text text-anchor="middle" pointer-events="none" font-size="8px" fill="#000000" x="65.65381716565722" y="3" font-family="sans-serif">PREF_TERM</text></g><g class="relationship" transform="translate(-303.3662386141684 -91.62227807540586) rotate(340.7943375909383)"><path class="outline" fill="#A5ABB6" stroke="none" d="M 25 0.5 L 64.64943452828113 0.5 L 64.64943452828113 -0.5 L 25 -0.5 Z M 80.87209077828113 0.5 L 120.52152530656227 0.5 L 120.52152530656227 3.5 L 127.52152530656227 0 L 120.52152530656227 -3.5 L 120.52152530656227 -0.5 L 80.87209077828113 -0.5 Z"/><text text-anchor="middle" pointer-events="none" font-size="8px" fill="#000000" x="72.76076265328113" y="3" font-family="sans-serif">PT</text></g></g><g class="layer nodes"><g class="node" aria-label="graph-node32972072" transform="translate(184.0723993461449,-84.33444911323325)"><circle class="outline" cx="0" cy="0" r="25" fill="#F79767" stroke="#f36924" stroke-width="2px"/><text class="caption" text-anchor="middle" pointer-events="none" x="0" y="5" font-size="10px" fill="#FFFFFF" font-family="sans-serif"> HGNC:1…</text></g><g class="node" aria-label="graph-node24428007" transform="translate(46.867390855090065,-142.84107503447655)"><circle class="outline" cx="0" cy="0" r="25" fill="#57C7E3" stroke="#23b3d7" stroke-width="2px"/><text class="caption" text-anchor="middle" pointer-events="none" x="0" y="0" font-size="10px" fill="#2A2C34" font-family="sans-serif"> BDKRB2</text><text class="caption" text-anchor="middle" pointer-events="none" x="0" y="10" font-size="10px" fill="#2A2C34" font-family="sans-serif"> gene</text></g><g class="node" aria-label="graph-node2028" transform="translate(47.40735943648536,0.9472542346482413)"><circle class="outline" cx="0" cy="0" r="25" fill="#C990C0" stroke="#b261a5" stroke-width="2px"/><text class="caption" text-anchor="middle" pointer-events="none" x="0" y="5" font-size="10px" fill="#FFFFFF" font-family="sans-serif"> C1332407</text></g><g class="node" aria-label="graph-node19619700" transform="translate(-160.16193808069406,-3.4906022848116045)"><circle class="outline" cx="0" cy="0" r="25" fill="#C990C0" stroke="#b261a5" stroke-width="2px"/><text class="caption" text-anchor="middle" pointer-events="none" x="0" y="5" font-size="10px" fill="#FFFFFF" font-family="sans-serif"> TTU5M…</text></g><g class="node" aria-label="graph-node32232034" transform="translate(-159.3334719871281,-141.79575532784324)"><circle class="outline" cx="0" cy="0" r="25" fill="#57C7E3" stroke="#23b3d7" stroke-width="2px"/><text class="caption" text-anchor="middle" pointer-events="none" x="0" y="5" font-size="10px" fill="#2A2C34" font-family="sans-serif"> HALLM…</text></g><g class="node" aria-label="graph-node53065357" transform="translate(-303.3662386141684,-91.62227807540586)"><circle class="outline" cx="0" cy="0" r="25" fill="#F79767" stroke="#f36924" stroke-width="2px"/><text class="caption" text-anchor="middle" pointer-events="none" x="0" y="5" font-size="10px" fill="#FFFFFF" font-family="sans-serif"> M5909</text></g></g></svg>