<svg xmlns="http://www.w3.org/2000/svg" width="533.4166259765625" height="204.44000244140625" viewBox="-380.6273498535156 -163.0702667236328 533.4166259765625 204.44000244140625"><title>Neo4j Graph Visualization</title><desc>Created using Neo4j (http://www.neo4j.com/)</desc><g class="layer relationships"><g class="relationship" transform="translate(123.78926667051743 -49.13133645978301) rotate(211.26933466277728)"><path class="outline" fill="#A5ABB6" stroke="none" d="M 24.018736134675446,6.953439040707552 L 24.277555179777966,5.987513214418485 A 217.61531477224216 217.61531477224216 0 0 0 69.97430310664082,13.14297870691496 L 69.92547271961914,14.141785792043692 A 218.61531477224216 218.61531477224216 0 0 1 24.018736134675446,6.953439040707552 Z M 86.63055403045097,14.319397296724276 L 86.60297128361587,13.319777773066875 A 217.61531477224216 217.61531477224216 0 0 0 132.4415282104172,7.137532519607215 L 131.7268590459442,4.223901110977865 L 139.3591130246312,5.955576370608419 L 133.39442042971456,11.022374397779682 L 132.67975126524155,8.108742989150333 A 218.61531477224216 218.61531477224216 0 0 1 86.63055403045097,14.319397296724276"/><text text-anchor="middle" pointer-events="none" font-size="8px" fill="#000000" x="78.28163196977006" y="16.890248054878754" transform="rotate(180 78.28163196977006 13.890248054878754)" font-family="sans-serif">SY</text></g><g class="relationship" transform="translate(123.78926667051743 -49.13133645978301) rotate(211.26933466277728)"><path class="outline" fill="#A5ABB6" stroke="none" d="M 24.018736134675446,-6.953439040707552 L 24.277555179777966,-5.987513214418485 A 217.61531477224216 217.61531477224216 0 0 1 70.1981358638851,-13.153806079939073 L 70.15033404765808,-14.152662919714146 A 218.61531477224216 218.61531477224216 0 0 0 24.018736134675446,-6.953439040707552 Z M 86.4055122657083,-14.325490971756437 L 86.37895891502953,-13.32584357413677 A 217.61531477224216 217.61531477224216 0 0 1 132.4415282104172,-7.137532519607215 L 131.7268590459442,-4.223901110977865 L 139.3591130246312,-5.955576370608419 L 133.39442042971456,-11.022374397779682 L 132.67975126524155,-8.108742989150333 A 218.61531477224216 218.61531477224216 0 0 0 86.4055122657083,-14.325490971756437"/><text text-anchor="middle" pointer-events="none" font-size="8px" fill="#000000" x="78.28163196976995" y="-10.890248054878754" transform="rotate(180 78.28163196976995 -13.890248054878754)" font-family="sans-serif">PT</text></g><g class="relationship" transform="translate(-10.026858923856317 12.369743600989924) rotate(180.53161976026166)"><path class="outline" fill="#A5ABB6" stroke="none" d="M 24.018736134675446,6.953439040707552 L 24.277555179777966,5.987513214418485 A 322.93452726545246 322.93452726545246 0 0 0 45.80807076973438,10.973691344771908 L 45.61592318207022,11.955057384817508 A 323.93452726545246 323.93452726545246 0 0 1 24.018736134675446,6.953439040707552 Z M 164.95942458284878,12.918968454010894 L 164.78315358170664,11.934626778495556 A 322.93452726545246 322.93452726545246 0 0 0 186.39139955853173,7.296870885611929 L 185.6618500823614,4.386929724382103 L 193.30285384742973,6.079578968086113 L 187.36413219342552,11.176792433918363 L 186.6345827172552,8.266851272688537 A 323.93452726545246 323.93452726545246 0 0 1 164.95942458284878,12.918968454010894"/><text text-anchor="middle" pointer-events="none" font-size="8px" fill="#000000" x="105.2469372068264" y="20.480691388165496" transform="rotate(180 105.2469372068264 17.480691388165496)" font-family="sans-serif">positively_correlated_with_gene</text></g><g class="relationship" transform="translate(-10.026858923856317 12.369743600989924) rotate(335.3167751658116)"><path class="outline" fill="#A5ABB6" stroke="none" d="M 25 0.5 L 55.57952290510728 0.5 L 55.57952290510728 -0.5 L 25 -0.5 Z M 84.69280415510728 0.5 L 115.27232706021456 0.5 L 115.27232706021456 3.5 L 122.27232706021456 0 L 115.27232706021456 -3.5 L 115.27232706021456 -0.5 L 84.69280415510728 -0.5 Z"/><text text-anchor="middle" pointer-events="none" font-size="8px" fill="#000000" x="70.13616353010728" y="3" font-family="sans-serif">CODE</text></g><g class="relationship" transform="translate(-10.026858923856317 12.369743600989924) rotate(267.6332742752487)"><path class="outline" fill="#A5ABB6" stroke="none" d="M 25 0.5 L 42.55790985391215 0.5 L 42.55790985391215 -0.5 L 25 -0.5 Z M 97.00712860391215 0.5 L 114.5650384578243 0.5 L 114.5650384578243 3.5 L 121.5650384578243 0 L 114.5650384578243 -3.5 L 114.5650384578243 -0.5 L 97.00712860391215 -0.5 Z"/><text text-anchor="middle" pointer-events="none" font-size="8px" fill="#000000" x="69.78251922891215" y="3" transform="rotate(180 69.78251922891215 0)" font-family="sans-serif">PREF_TERM</text></g><g class="relationship" transform="translate(-227.56985788208542 10.351209655619456) rotate(360.53161976026166)"><path class="outline" fill="#A5ABB6" stroke="none" d="M 24.018736134675446,6.953439040707552 L 24.277555179777966,5.987513214418485 A 322.93452726545246 322.93452726545246 0 0 0 25.26521007374501,6.250480113733204 L 25.0094494036708,7.21722024409047 A 323.93452726545246 323.93452726545246 0 0 1 24.018736134675446,6.953439040707552 Z M 185.63973796996584,8.514595563060084 L 185.3996259403242,7.543850378564514 A 322.93452726545246 322.93452726545246 0 0 0 186.39139955853173,7.296870885611929 L 185.6618500823614,4.386929724382103 L 193.30285384742973,6.079578968086113 L 187.36413219342552,11.176792433918363 L 186.6345827172552,8.266851272688537 A 323.93452726545246 323.93452726545246 0 0 1 185.63973796996584,8.514595563060084"/><text text-anchor="middle" pointer-events="none" font-size="8px" fill="#000000" x="105.2469372068264" y="20.480691388165496" font-family="sans-serif">positively_correlated_with_chemical_or_d…</text></g><g class="relationship" transform="translate(-227.56985788208542 10.351209655619456) rotate(214.8037992779786)"><path class="outline" fill="#A5ABB6" stroke="none" d="M 25 0.5 L 57.48578401766633 0.5 L 57.48578401766633 -0.5 L 25 -0.5 Z M 86.59906526766633 0.5 L 119.08484928533267 0.5 L 119.08484928533267 3.5 L 126.08484928533267 0 L 119.08484928533267 -3.5 L 119.08484928533267 -0.5 L 86.59906526766633 -0.5 Z"/><text text-anchor="middle" pointer-events="none" font-size="8px" fill="#000000" x="72.04242464266633" y="3" transform="rotate(180 72.04242464266633 0)" font-family="sans-serif">CODE</text></g><g class="relationship" transform="translate(-227.56985788208542 10.351209655619456) rotate(272.99320302270496)"><path class="outline" fill="#A5ABB6" stroke="none" d="M 25 0.5 L 40.3582739243634 0.5 L 40.3582739243634 -0.5 L 25 -0.5 Z M 94.8074926743634 0.5 L 110.1657665987268 0.5 L 110.1657665987268 3.5 L 117.1657665987268 0 L 110.1657665987268 -3.5 L 110.1657665987268 -0.5 L 94.8074926743634 -0.5 Z"/><text text-anchor="middle" pointer-events="none" font-size="8px" fill="#000000" x="67.5828832993634" y="3" font-family="sans-serif">PREF_TERM</text></g><g class="relationship" transform="translate(-351.6273444622836 -75.88319013341857) rotate(337.026948668047)"><path class="outline" fill="#A5ABB6" stroke="none" d="M 25 0.5 L 45.56965633935425 0.5 L 45.56965633935425 -0.5 L 25 -0.5 Z M 90.23762508935425 0.5 L 110.8072814287085 0.5 L 110.8072814287085 3.5 L 117.8072814287085 0 L 110.8072814287085 -3.5 L 110.8072814287085 -0.5 L 90.23762508935425 -0.5 Z"/><text text-anchor="middle" pointer-events="none" font-size="8px" fill="#000000" x="67.90364071435425" y="3" font-family="sans-serif">MTH_ACR</text></g></g><g class="layer nodes"><g class="node" aria-label="graph-node38108632" transform="translate(123.78926667051743,-49.13133645978301)"><circle class="outline" cx="0" cy="0" r="25" fill="#F79767" stroke="#f36924" stroke-width="2px"/><text class="caption" text-anchor="middle" pointer-events="none" x="0" y="5" font-size="10px" fill="#FFFFFF" font-family="sans-serif"> 3082</text></g><g class="node" aria-label="graph-node20622469" transform="translate(-16.0793223451076,-134.0702720527853)"><circle class="outline" cx="0" cy="0" r="25" fill="#57C7E3" stroke="#23b3d7" stroke-width="2px"/><text class="caption" text-anchor="middle" pointer-events="none" x="0" y="5" font-size="10px" fill="#2A2C34" font-family="sans-serif"> betaxolol</text></g><g class="node" aria-label="graph-node75" transform="translate(-10.026858923856317,12.369743600989924)"><circle class="outline" cx="0" cy="0" r="25" fill="#C990C0" stroke="#b261a5" stroke-width="2px"/><text class="caption" text-anchor="middle" pointer-events="none" x="0" y="5" font-size="10px" fill="#FFFFFF" font-family="sans-serif"> C0005320</text></g><g class="node" aria-label="graph-node2138624" transform="translate(-227.56985788208542,10.351209655619456)"><circle class="outline" cx="0" cy="0" r="25" fill="#C990C0" stroke="#b261a5" stroke-width="2px"/><text class="caption" text-anchor="middle" pointer-events="none" x="0" y="5" font-size="10px" fill="#FFFFFF" font-family="sans-serif"> C1428804</text></g><g class="node" aria-label="graph-node26376241" transform="translate(-220.14631855416286,-131.62060535162223)"><circle class="outline" cx="0" cy="0" r="25" fill="#57C7E3" stroke="#23b3d7" stroke-width="2px"/><text class="caption" text-anchor="middle" pointer-events="none" x="0" y="0" font-size="10px" fill="#2A2C34" font-family="sans-serif"> ZNF510</text><text class="caption" text-anchor="middle" pointer-events="none" x="0" y="10" font-size="10px" fill="#2A2C34" font-family="sans-serif"> gene</text></g><g class="node" aria-label="graph-node35786278" transform="translate(-351.6273444622836,-75.88319013341857)"><circle class="outline" cx="0" cy="0" r="25" fill="#F79767" stroke="#f36924" stroke-width="2px"/><text class="caption" text-anchor="middle" pointer-events="none" x="0" y="5" font-size="10px" fill="#FFFFFF" font-family="sans-serif"> HGNC:2…</text></g></g></svg>