<svg xmlns="http://www.w3.org/2000/svg" width="586.390380859375" height="224.06271362304688" viewBox="-358.9077453613281 -178.9988555908203 586.390380859375 224.06271362304688"><title>Neo4j Graph Visualization</title><desc>Created using Neo4j (http://www.neo4j.com/)</desc><g class="layer relationships"><g class="relationship" transform="translate(198.4826072377172 -71.09060727885026) rotate(213.38204229441317)"><path class="outline" fill="#A5ABB6" stroke="none" d="M 24.018736134675446,6.953439040707552 L 24.277555179777966,5.987513214418485 A 177.87548653557346 177.87548653557346 0 0 0 59.862744615146234,11.741105061146072 L 59.803982307081796,12.739377063734025 A 178.87548653557346 178.87548653557346 0 0 1 24.018736134675446,6.953439040707552 Z M 76.51528903831237,12.940986200478193 L 76.48062710443683,11.941587105851823 A 177.87548653557346 177.87548653557346 0 0 0 112.19426466870537,7.048161085379095 L 111.48794228445257,4.132495005474977 L 119.11520591919044,5.886019868773264 L 113.1360278477091,10.935715858584587 L 112.4297054634563,8.020049778680468 A 178.87548653557346 178.87548653557346 0 0 1 76.51528903831237,12.940986200478193"/><text text-anchor="middle" pointer-events="none" font-size="8px" fill="#000000" x="68.16331149647824" y="15.535493959271491" transform="rotate(180 68.16331149647824 12.535493959271491)" font-family="sans-serif">SY</text></g><g class="relationship" transform="translate(198.4826072377172 -71.09060727885026) rotate(213.38204229441317)"><path class="outline" fill="#A5ABB6" stroke="none" d="M 24.018736134675446,-6.953439040707552 L 24.277555179777966,-5.987513214418485 A 177.87548653557346 177.87548653557346 0 0 1 60.08634558397552,-11.754125853056593 L 60.02884034046328,-12.752471057366506 A 178.87548653557346 178.87548653557346 0 0 0 24.018736134675446,-6.953439040707552 Z M 76.29018055761456,-12.948651692203157 L 76.25677708841218,-11.9492097437913 A 177.87548653557346 177.87548653557346 0 0 1 112.19426466870537,-7.048161085379095 L 111.48794228445257,-4.132495005474977 L 119.11520591919044,-5.886019868773264 L 113.1360278477091,-10.935715858584587 L 112.4297054634563,-8.020049778680468 A 178.87548653557346 178.87548653557346 0 0 0 76.29018055761456,-12.948651692203157"/><text text-anchor="middle" pointer-events="none" font-size="8px" fill="#000000" x="68.16331149647822" y="-9.535493959271491" transform="rotate(180 68.16331149647822 -12.535493959271491)" font-family="sans-serif">PT</text></g><g class="relationship" transform="translate(82.88476816777475 14.973209669635263) rotate(181.09753755648188)"><path class="outline" fill="#A5ABB6" stroke="none" d="M 24.018736134675446,6.953439040707552 L 24.277555179777966,5.987513214418485 A 470.5873714800265 470.5873714800265 0 0 0 83.5603059196099,17.851618986726123 L 83.42746295107183,18.842756084059317 A 471.5873714800265 471.5873714800265 0 0 1 24.018736134675446,6.953439040707552 Z M 203.07686079785833,19.564682459568473 L 202.9559874773633,18.57201451891939 A 470.5873714800265 470.5873714800265 0 0 0 262.3775852225364,7.424132995134265 L 261.6361518800742,4.517197048353669 L 269.2840079887682,6.178611187185693 L 263.36616301248614,11.300047590841727 L 262.6247296700239,8.39311164406113 A 471.5873714800265 471.5873714800265 0 0 1 203.07686079785833,19.564682459568473"/><text text-anchor="middle" pointer-events="none" font-size="8px" fill="#000000" x="143.23218981516334" y="25.513814248642518" transform="rotate(180 143.23218981516334 22.513814248642518)" font-family="sans-serif">positively_correlated_with_gene</text></g><g class="relationship" transform="translate(82.88476816777475 14.973209669635263) rotate(323.3319256226923)"><path class="outline" fill="#A5ABB6" stroke="none" d="M 25 0.5 L 54.00208713469392 0.5 L 54.00208713469392 -0.5 L 25 -0.5 Z M 83.11536838469392 0.5 L 112.11745551938785 0.5 L 112.11745551938785 3.5 L 119.11745551938785 0 L 112.11745551938785 -3.5 L 112.11745551938785 -0.5 L 83.11536838469392 -0.5 Z"/><text text-anchor="middle" pointer-events="none" font-size="8px" fill="#000000" x="68.55872775969392" y="3" font-family="sans-serif">CODE</text></g><g class="relationship" transform="translate(82.88476816777475 14.973209669635263) rotate(268.5574384991681)"><path class="outline" fill="#A5ABB6" stroke="none" d="M 25 0.5 L 51.7875740500952 0.5 L 51.7875740500952 -0.5 L 25 -0.5 Z M 106.2367928000952 0.5 L 133.0243668501904 0.5 L 133.0243668501904 3.5 L 140.0243668501904 0 L 133.0243668501904 -3.5 L 133.0243668501904 -0.5 L 106.2367928000952 -0.5 Z"/><text text-anchor="middle" pointer-events="none" font-size="8px" fill="#000000" x="79.0121834250952" y="3" transform="rotate(180 79.0121834250952 0)" font-family="sans-serif">PREF_TERM</text></g><g class="relationship" transform="translate(-210.56985788208542 9.351209655619456) rotate(361.0975375564819)"><path class="outline" fill="#A5ABB6" stroke="none" d="M 24.018736134675446,6.953439040707552 L 24.277555179777966,5.987513214418485 A 470.5873714800265 470.5873714800265 0 0 0 60.97358557580465,14.263607416206526 L 60.7927457384327,15.24711997495666 A 471.5873714800265 471.5873714800265 0 0 1 24.018736134675446,6.953439040707552 Z M 225.7533182901267,16.24243955355297 L 225.58435959062524,15.256816421791768 A 470.5873714800265 470.5873714800265 0 0 0 262.3775852225364,7.424132995134265 L 261.6361518800742,4.517197048353669 L 269.2840079887682,6.178611187185693 L 263.36616301248614,11.300047590841727 L 262.6247296700239,8.39311164406113 A 471.5873714800265 471.5873714800265 0 0 1 225.7533182901267,16.24243955355297"/><text text-anchor="middle" pointer-events="none" font-size="8px" fill="#000000" x="143.23218981516334" y="25.513814248642518" font-family="sans-serif">positively_correlated_with_chemical_or_drug</text></g><g class="relationship" transform="translate(-210.56985788208542 9.351209655619456) rotate(216.95979344377184)"><path class="outline" fill="#A5ABB6" stroke="none" d="M 25 0.5 L 56.61749843588399 0.5 L 56.61749843588399 -0.5 L 25 -0.5 Z M 85.73077968588399 0.5 L 117.34827812176798 0.5 L 117.34827812176798 3.5 L 124.34827812176798 0 L 117.34827812176798 -3.5 L 117.34827812176798 -0.5 L 85.73077968588399 -0.5 Z"/><text text-anchor="middle" pointer-events="none" font-size="8px" fill="#000000" x="71.17413906088399" y="3" transform="rotate(180 71.17413906088399 0)" font-family="sans-serif">CODE</text></g><g class="relationship" transform="translate(-210.56985788208542 9.351209655619456) rotate(271.06772356346454)"><path class="outline" fill="#A5ABB6" stroke="none" d="M 25 0.5 L 47.99575064361629 0.5 L 47.99575064361629 -0.5 L 25 -0.5 Z M 102.44496939361629 0.5 L 125.44072003723258 0.5 L 125.44072003723258 3.5 L 132.44072003723258 0 L 125.44072003723258 -3.5 L 125.44072003723258 -0.5 L 102.44496939361629 -0.5 Z"/><text text-anchor="middle" pointer-events="none" font-size="8px" fill="#000000" x="75.22036001861629" y="3" font-family="sans-serif">PREF_TERM</text></g><g class="relationship" transform="translate(-329.9077389105552 -80.44510613501723) rotate(331.05710592847186)"><path class="outline" fill="#A5ABB6" stroke="none" d="M 25 0.5 L 44.027356630412314 0.5 L 44.027356630412314 -0.5 L 25 -0.5 Z M 88.69532538041231 0.5 L 107.72268201082463 0.5 L 107.72268201082463 3.5 L 114.72268201082463 0 L 107.72268201082463 -3.5 L 107.72268201082463 -0.5 L 88.69532538041231 -0.5 Z"/><text text-anchor="middle" pointer-events="none" font-size="8px" fill="#000000" x="66.36134100541231" y="3" font-family="sans-serif">MTH_ACR</text></g></g><g class="layer nodes"><g class="node" aria-label="graph-node38147175" transform="translate(198.4826072377172,-71.09060727885026)"><circle class="outline" cx="0" cy="0" r="25" fill="#F79767" stroke="#f36924" stroke-width="2px"/><text class="caption" text-anchor="middle" pointer-events="none" x="0" y="5" font-size="10px" fill="#FFFFFF" font-family="sans-serif"> 3994</text></g><g class="node" aria-label="graph-node28697991" transform="translate(78.73031473024542,-149.99885515026577)"><circle class="outline" cx="0" cy="0" r="25" fill="#57C7E3" stroke="#23b3d7" stroke-width="2px"/><text class="caption" text-anchor="middle" pointer-events="none" x="0" y="5" font-size="10px" fill="#2A2C34" font-family="sans-serif"> cyclizine</text></g><g class="node" aria-label="graph-node156" transform="translate(82.88476816777475,14.973209669635263)"><circle class="outline" cx="0" cy="0" r="25" fill="#C990C0" stroke="#b261a5" stroke-width="2px"/><text class="caption" text-anchor="middle" pointer-events="none" x="0" y="5" font-size="10px" fill="#FFFFFF" font-family="sans-serif"> C0010547</text></g><g class="node" aria-label="graph-node1183621" transform="translate(-210.56985788208542,9.351209655619456)"><circle class="outline" cx="0" cy="0" r="25" fill="#C990C0" stroke="#b261a5" stroke-width="2px"/><text class="caption" text-anchor="middle" pointer-events="none" x="0" y="5" font-size="10px" fill="#FFFFFF" font-family="sans-serif"> C1424661</text></g><g class="node" aria-label="graph-node22272628" transform="translate(-207.63607395272533,-148.0621736308663)"><circle class="outline" cx="0" cy="0" r="25" fill="#57C7E3" stroke="#23b3d7" stroke-width="2px"/><text class="caption" text-anchor="middle" pointer-events="none" x="0" y="0" font-size="10px" fill="#2A2C34" font-family="sans-serif"> TXNIP</text><text class="caption" text-anchor="middle" pointer-events="none" x="0" y="10" font-size="10px" fill="#2A2C34" font-family="sans-serif"> gene</text></g><g class="node" aria-label="graph-node33784296" transform="translate(-329.9077389105552,-80.44510613501723)"><circle class="outline" cx="0" cy="0" r="25" fill="#F79767" stroke="#f36924" stroke-width="2px"/><text class="caption" text-anchor="middle" pointer-events="none" x="0" y="5" font-size="10px" fill="#FFFFFF" font-family="sans-serif"> HGNC:1…</text></g></g></svg>