<svg xmlns="http://www.w3.org/2000/svg" width="415.4091796875" height="260.50274658203125" viewBox="-297.091552734375 -198.8075408935547 415.4091796875 260.50274658203125"><title>Neo4j Graph Visualization</title><desc>Created using Neo4j (http://www.neo4j.com/)</desc><g class="layer relationships"><g class="relationship" transform="translate(89.3176304004686 27.257107783937627) rotate(213.50086284774034)"><path class="outline" fill="#A5ABB6" stroke="none" d="M 24.018736134675446,-6.953439040707552 L 24.277555179777966,-5.987513214418485 A 317.1640379240713 317.1640379240713 0 0 1 68.8950260637206,-14.57339706453945 L 68.77688334237777,-15.566393689606116 A 318.1640379240713 318.1640379240713 0 0 0 24.018736134675446,-6.953439040707552 Z M 138.7779518212759,-16.139341719092158 L 138.67607888988925,-15.144544299588688 A 317.1640379240713 317.1640379240713 0 0 1 183.42811104710384,-7.290136150856675 L 182.69919048976053,-4.380037386023719 L 190.33982825793797,-6.07433797786107 L 184.4000051235616,-11.170267837300615 L 183.6710845662183,-8.26016907246766 A 318.1640379240713 318.1640379240713 0 0 0 138.7779518212759,-16.139341719092158"/><text text-anchor="middle" pointer-events="none" font-size="8px" fill="#000000" x="103.7657041807985" y="-14.283975842099778" transform="rotate(180 103.7657041807985 -17.283975842099778)" font-family="sans-serif">coexpressed_with</text></g><g class="relationship" transform="translate(-89.6246875859827 -91.18610417110364) rotate(505.2338701903333)"><path class="outline" fill="#A5ABB6" stroke="none" d="M 24.018736134675446,6.953439040707552 L 24.277555179777966,5.987513214418485 A 322.342935678663 322.342935678663 0 0 0 42.16542997569876,10.237709051473644 L 41.96210423544642,11.216820201114388 A 323.342935678663 323.342935678663 0 0 1 24.018736134675446,6.953439040707552 Z M 168.32075649009835,12.238774571714202 L 168.13329388054666,11.25650283231613 A 322.342935678663 322.342935678663 0 0 0 186.0875730462887,7.296188576294385 L 185.35808728702807,4.386231441380547 L 192.9990539876311,6.0790479938385715 L 187.06022072530288,11.17613142284617 L 186.33073496604226,8.266174287932332 A 323.342935678663 323.342935678663 0 0 1 168.32075649009835,12.238774571714202"/><text text-anchor="middle" pointer-events="none" font-size="8px" fill="#000000" x="105.09506563001226" y="20.46052412281267" transform="rotate(180 105.09506563001226 17.46052412281267)" font-family="sans-serif">gene_associated_with_phenotype</text></g><g class="relationship" transform="translate(80.62687811057472 -79.23235985207205) rotate(270.30087451840234)"><path class="outline" fill="#A5ABB6" stroke="none" d="M 25 0.5 L 30.34289994542989 0.5 L 30.34289994542989 -0.5 L 25 -0.5 Z M 53.23352494542989 0.5 L 58.57642489085978 0.5 L 58.57642489085978 3.5 L 65.57642489085978 0 L 58.57642489085978 -3.5 L 58.57642489085978 -0.5 L 53.23352494542989 -0.5 Z"/><text text-anchor="middle" pointer-events="none" font-size="8px" fill="#000000" x="41.78821244542989" y="3" font-family="sans-serif">ACR</text></g><g class="relationship" transform="translate(89.3176304004686 27.257107783937627) rotate(265.33435248250487)"><path class="outline" fill="#A5ABB6" stroke="none" d="M 25 0.5 L 35.36511499189509 0.5 L 35.36511499189509 -0.5 L 25 -0.5 Z M 64.4783962418951 0.5 L 74.84351123379018 0.5 L 74.84351123379018 3.5 L 81.84351123379018 0 L 74.84351123379018 -3.5 L 74.84351123379018 -0.5 L 64.4783962418951 -0.5 Z"/><text text-anchor="middle" pointer-events="none" font-size="8px" fill="#000000" x="49.92175561689509" y="3" transform="rotate(180 49.92175561689509 0)" font-family="sans-serif">CODE</text></g><g class="relationship" transform="translate(-268.0915462870496 32.6951962634849) rotate(325.2338701903333)"><path class="outline" fill="#A5ABB6" stroke="none" d="M 24.018736134675446,6.953439040707552 L 24.277555179777966,5.987513214418485 A 322.342935678663 322.342935678663 0 0 0 42.16542997569876,10.237709051473644 L 41.96210423544642,11.216820201114388 A 323.342935678663 323.342935678663 0 0 1 24.018736134675446,6.953439040707552 Z M 168.32075649009835,12.238774571714202 L 168.13329388054666,11.25650283231613 A 322.342935678663 322.342935678663 0 0 0 186.0875730462887,7.296188576294385 L 185.35808728702807,4.386231441380547 L 192.9990539876311,6.0790479938385715 L 187.06022072530288,11.17613142284617 L 186.33073496604226,8.266174287932332 A 323.342935678663 323.342935678663 0 0 1 168.32075649009835,12.238774571714202"/><text text-anchor="middle" pointer-events="none" font-size="8px" fill="#000000" x="105.09506563001226" y="20.46052412281267" font-family="sans-serif">phenotype_associated_with_gene</text></g><g class="relationship" transform="translate(-268.0915462870496 32.6951962634849) rotate(271.0250751877857)"><path class="outline" fill="#A5ABB6" stroke="none" d="M 25 0.5 L 82.0758434966648 0.5 L 82.0758434966648 -0.5 L 25 -0.5 Z M 111.1891247466648 0.5 L 168.2649682433296 0.5 L 168.2649682433296 3.5 L 175.2649682433296 0 L 168.2649682433296 -3.5 L 168.2649682433296 -0.5 L 111.1891247466648 -0.5 Z"/><text text-anchor="middle" pointer-events="none" font-size="8px" fill="#000000" x="96.6324841216648" y="3" font-family="sans-serif">CODE</text></g><g class="relationship" transform="translate(-89.6246875859827 -91.18610417110364) rotate(393.50086284774034)"><path class="outline" fill="#A5ABB6" stroke="none" d="M 24.018736134675446,-6.953439040707552 L 24.277555179777966,-5.987513214418485 A 317.1640379240713 317.1640379240713 0 0 1 68.8950260637206,-14.57339706453945 L 68.77688334237777,-15.566393689606116 A 318.1640379240713 318.1640379240713 0 0 0 24.018736134675446,-6.953439040707552 Z M 138.7779518212759,-16.139341719092158 L 138.67607888988925,-15.144544299588688 A 317.1640379240713 317.1640379240713 0 0 1 183.42811104710384,-7.290136150856675 L 182.69919048976053,-4.380037386023719 L 190.33982825793797,-6.07433797786107 L 184.4000051235616,-11.170267837300615 L 183.6710845662183,-8.26016907246766 A 318.1640379240713 318.1640379240713 0 0 0 138.7779518212759,-16.139341719092158"/><text text-anchor="middle" pointer-events="none" font-size="8px" fill="#000000" x="103.7657041807985" y="-14.283975842099778" font-family="sans-serif">coexpressed_with</text></g></g><g class="layer nodes"><g class="node" aria-label="graph-node33386893" transform="translate(80.62687811057472,-79.23235985207205)"><circle class="outline" cx="0" cy="0" r="25" fill="#F79767" stroke="#f36924" stroke-width="2px"/><text class="caption" text-anchor="middle" pointer-events="none" x="0" y="5" font-size="10px" fill="#FFFFFF" font-family="sans-serif"> HGNC:5…</text></g><g class="node" aria-label="graph-node25417127" transform="translate(81.10251546467363,-169.80753589450075)"><circle class="outline" cx="0" cy="0" r="25" fill="#57C7E3" stroke="#23b3d7" stroke-width="2px"/><text class="caption" text-anchor="middle" pointer-events="none" x="0" y="5" font-size="10px" fill="#2A2C34" font-family="sans-serif"> HNRNP…</text></g><g class="node" aria-label="graph-node32975176" transform="translate(-264.50880947296713,-167.5377218654352)"><circle class="outline" cx="0" cy="0" r="25" fill="#F79767" stroke="#f36924" stroke-width="2px"/><text class="caption" text-anchor="middle" pointer-events="none" x="0" y="5" font-size="10px" fill="#FFFFFF" font-family="sans-serif"> HP:0001…</text></g><g class="node" aria-label="graph-node3147027" transform="translate(89.3176304004686,27.257107783937627)"><circle class="outline" cx="0" cy="0" r="25" fill="#C990C0" stroke="#b261a5" stroke-width="2px"/><text class="caption" text-anchor="middle" pointer-events="none" x="0" y="5" font-size="10px" fill="#FFFFFF" font-family="sans-serif"> C1845100</text></g><g class="node" aria-label="graph-node3138649" transform="translate(-268.0915462870496,32.6951962634849)"><circle class="outline" cx="0" cy="0" r="25" fill="#C990C0" stroke="#b261a5" stroke-width="2px"/><text class="caption" text-anchor="middle" pointer-events="none" x="0" y="5" font-size="10px" fill="#FFFFFF" font-family="sans-serif"> C0018817</text></g><g class="node" aria-label="graph-node3262320" transform="translate(-89.6246875859827,-91.18610417110364)"><circle class="outline" cx="0" cy="0" r="25" fill="#C990C0" stroke="#b261a5" stroke-width="2px"/><text class="caption" text-anchor="middle" pointer-events="none" x="0" y="5" font-size="10px" fill="#FFFFFF" font-family="sans-serif"> C0694891</text></g></g></svg>