<svg xmlns="http://www.w3.org/2000/svg" width="228.8133087158203" height="191.2622528076172" viewBox="-151.33953857421875 -140.06552124023438 228.8133087158203 191.2622528076172"><title>Neo4j Graph Visualization</title><desc>Created using Neo4j (http://www.neo4j.com/)</desc><g class="layer relationships"><g class="relationship" transform="translate(48.350938673757724 22.196734986897937) rotate(180.23104109256462)"><path class="outline" fill="#A5ABB6" stroke="none" d="M 24.018736134675446,6.953439040707552 L 24.277555179777966,5.987513214418485 A 231.43429235563462 231.43429235563462 0 0 0 47.03362690270009,10.873366416746876 L 46.87313413194224,11.860403432534241 A 232.43429235563462 232.43429235563462 0 0 1 24.018736134675446,6.953439040707552 Z M 116.78928043630157,12.574221556692152 L 116.6489735892587,11.584113487503316 A 231.43429235563462 231.43429235563462 0 0 0 139.5000569044062,7.1638925543754635 L 138.78292593893778,4.250866090649749 L 146.4166404806776,5.9760913789034475 L 140.45623152503074,11.047927839343082 L 139.73910055956233,8.134901375617368 A 232.43429235563462 232.43429235563462 0 0 1 116.78928043630157,12.574221556692152"/><text text-anchor="middle" pointer-events="none" font-size="8px" fill="#000000" x="81.80931736424289" y="17.361358420398602" transform="rotate(180 81.80931736424289 14.361358420398602)" font-family="sans-serif">coexpressed_with</text></g><g class="relationship" transform="translate(48.350938673757724 22.196734986897937) rotate(270.0553592952612)"><path class="outline" fill="#A5ABB6" stroke="none" d="M 25 0.5 L 32.83900105706251 0.5 L 32.83900105706251 -0.5 L 25 -0.5 Z M 87.28821980706252 0.5 L 95.12722086412502 0.5 L 95.12722086412502 3.5 L 102.12722086412502 0 L 95.12722086412502 -3.5 L 95.12722086412502 -0.5 L 87.28821980706252 -0.5 Z"/><text text-anchor="middle" pointer-events="none" font-size="8px" fill="#000000" x="60.06361043206251" y="3" font-family="sans-serif">PREF_TERM</text></g><g class="relationship" transform="translate(-122.33953457458597 21.508434251340525) rotate(360.2310410925646)"><path class="outline" fill="#A5ABB6" stroke="none" d="M 24.018736134675446,6.953439040707552 L 24.277555179777966,5.987513214418485 A 231.43429235563462 231.43429235563462 0 0 0 47.03362690270009,10.873366416746876 L 46.87313413194224,11.860403432534241 A 232.43429235563462 232.43429235563462 0 0 1 24.018736134675446,6.953439040707552 Z M 116.78928043630157,12.574221556692152 L 116.6489735892587,11.584113487503316 A 231.43429235563462 231.43429235563462 0 0 0 139.5000569044062,7.1638925543754635 L 138.78292593893778,4.250866090649749 L 146.4166404806776,5.9760913789034475 L 140.45623152503074,11.047927839343082 L 139.73910055956233,8.134901375617368 A 232.43429235563462 232.43429235563462 0 0 1 116.78928043630157,12.574221556692152"/><text text-anchor="middle" pointer-events="none" font-size="8px" fill="#000000" x="81.80931736424289" y="17.361358420398602" font-family="sans-serif">coexpressed_with</text></g><g class="relationship" transform="translate(-122.33953457458597 21.508434251340525) rotate(270.21715290293196)"><path class="outline" fill="#A5ABB6" stroke="none" d="M 25 0.5 L 35.56284146493239 0.5 L 35.56284146493239 -0.5 L 25 -0.5 Z M 90.01206021493239 0.5 L 100.57490167986478 0.5 L 100.57490167986478 3.5 L 107.57490167986478 0 L 100.57490167986478 -3.5 L 100.57490167986478 -0.5 L 90.01206021493239 -0.5 Z"/><text text-anchor="middle" pointer-events="none" font-size="8px" fill="#000000" x="62.78745083993239" y="3" font-family="sans-serif">PREF_TERM</text></g></g><g class="layer nodes"><g class="node" aria-label="graph-node20348588" transform="translate(48.47376922638074,-104.93042653766128)"><circle class="outline" cx="0" cy="0" r="25" fill="#57C7E3" stroke="#23b3d7" stroke-width="2px"/><text class="caption" text-anchor="middle" pointer-events="none" x="0" y="0" font-size="10px" fill="#2A2C34" font-family="sans-serif"> HNRNPL</text><text class="caption" text-anchor="middle" pointer-events="none" x="0" y="10" font-size="10px" fill="#2A2C34" font-family="sans-serif"> gene</text></g><g class="node" aria-label="graph-node3379996" transform="translate(48.350938673757724,22.196734986897937)"><circle class="outline" cx="0" cy="0" r="25" fill="#C990C0" stroke="#b261a5" stroke-width="2px"/><text class="caption" text-anchor="middle" pointer-events="none" x="0" y="5" font-size="10px" fill="#FFFFFF" font-family="sans-serif"> C1415646</text></g><g class="node" aria-label="graph-node2669635" transform="translate(-122.33953457458597,21.508434251340525)"><circle class="outline" cx="0" cy="0" r="25" fill="#C990C0" stroke="#b261a5" stroke-width="2px"/><text class="caption" text-anchor="middle" pointer-events="none" x="0" y="5" font-size="10px" fill="#FFFFFF" font-family="sans-serif"> C0812268</text></g><g class="node" aria-label="graph-node19965330" transform="translate(-121.83707250708642,-111.06551525344169)"><circle class="outline" cx="0" cy="0" r="25" fill="#57C7E3" stroke="#23b3d7" stroke-width="2px"/><text class="caption" text-anchor="middle" pointer-events="none" x="0" y="0" font-size="10px" fill="#2A2C34" font-family="sans-serif"> SUPT5H</text><text class="caption" text-anchor="middle" pointer-events="none" x="0" y="10" font-size="10px" fill="#2A2C34" font-family="sans-serif"> gene</text></g></g></svg>