<svg xmlns="http://www.w3.org/2000/svg" width="418.7005615234375" height="463.1221618652344" viewBox="-223.7245330810547 -240.27479553222656 418.7005615234375 463.1221618652344"><title>Neo4j Graph Visualization</title><desc>Created using Neo4j (http://www.neo4j.com/)</desc><g class="layer relationships"><g class="relationship" transform="translate(165.97602522355018 96.08147843422195) rotate(233.93026914003258)"><path class="outline" fill="#A5ABB6" stroke="none" d="M 24.018736134675446,6.953439040707552 L 24.277555179777966,5.987513214418485 A 184.1737049571629 184.1737049571629 0 0 0 24.73874936649444,6.110449532564928 L 24.48243444752015,7.077042860863429 A 185.1737049571629 185.1737049571629 0 0 1 24.018736134675446,6.953439040707552 Z M 115.16673959695774,8.148257237658044 L 114.9333289084522,7.1758789930991895 A 184.1737049571629 184.1737049571629 0 0 0 115.39729838770457,7.06387123219586 L 114.6895087371457,4.148560989603869 L 122.31765389551235,5.898247087990517 L 116.34101792178305,10.950951555651846 L 115.63322827122418,8.035641313059855 A 185.1737049571629 185.1737049571629 0 0 1 115.16673959695774,8.148257237658044"/><text text-anchor="middle" pointer-events="none" font-size="8px" fill="#000000" x="69.76389940774938" y="15.75019699633512" transform="rotate(180 69.76389940774938 12.75019699633512)" font-family="sans-serif">positively_correlated_…</text></g><g class="relationship" transform="translate(165.97602522355018 96.08147843422195) rotate(497.14009331402195)"><path class="outline" fill="#A5ABB6" stroke="none" d="M 25 0.5 L 41.140097017811286 0.5 L 41.140097017811286 -0.5 L 25 -0.5 Z M 95.58931576781129 0.5 L 111.72941278562257 0.5 L 111.72941278562257 3.5 L 118.72941278562257 0 L 111.72941278562257 -3.5 L 111.72941278562257 -0.5 L 95.58931576781129 -0.5 Z"/><text text-anchor="middle" pointer-events="none" font-size="8px" fill="#000000" x="68.36470639281129" y="3" transform="rotate(180 68.36470639281129 0)" font-family="sans-serif">PREF_TERM</text></g><g class="relationship" transform="translate(79.65541882177166 -22.42507778558145) rotate(413.9302691400326)"><path class="outline" fill="#A5ABB6" stroke="none" d="M 24.018736134675446,6.953439040707552 L 24.277555179777966,5.987513214418485 A 184.1737049571629 184.1737049571629 0 0 0 24.73874936649444,6.110449532564928 L 24.48243444752015,7.077042860863429 A 185.1737049571629 185.1737049571629 0 0 1 24.018736134675446,6.953439040707552 Z M 115.16673959695774,8.148257237658044 L 114.9333289084522,7.1758789930991895 A 184.1737049571629 184.1737049571629 0 0 0 115.39729838770457,7.06387123219586 L 114.6895087371457,4.148560989603869 L 122.31765389551235,5.898247087990517 L 116.34101792178305,10.950951555651846 L 115.63322827122418,8.035641313059855 A 185.1737049571629 185.1737049571629 0 0 1 115.16673959695774,8.148257237658044"/><text text-anchor="middle" pointer-events="none" font-size="8px" fill="#000000" x="69.76389940774938" y="15.75019699633512" font-family="sans-serif">positively_correlated_…</text></g><g class="relationship" transform="translate(79.65541882177166 -22.42507778558145) rotate(528.7507291699836)"><path class="outline" fill="#A5ABB6" stroke="none" d="M 24.018736134675446,6.953439040707552 L 24.277555179777966,5.987513214418485 A 187.34660198465764 187.34660198465764 0 0 0 34.79884647169936,8.483612781146235 L 34.596186925517365,9.462862038660006 A 188.34660198465764 188.34660198465764 0 0 1 24.018736134675446,6.953439040707552 Z M 106.61478416804539,10.30473378363314 L 106.43507102216049,9.321014725570251 A 187.34660198465764 187.34660198465764 0 0 0 117.01183634106229,7.071543924391489 L 116.30333009546672,4.156407752623169 L 123.93190511612097,5.904218713296516 L 117.95651133518973,10.958392153415915 L 117.24800508959416,8.043255981647595 A 188.34660198465764 188.34660198465764 0 0 1 106.61478416804539,10.30473378363314"/><text text-anchor="middle" pointer-events="none" font-size="8px" fill="#000000" x="70.57071396653856" y="15.858360780071166" transform="rotate(180 70.57071396653856 12.858360780071166)" font-family="sans-serif">signature_gene_of</text></g><g class="relationship" transform="translate(79.65541882177166 -22.42507778558145) rotate(279.35010605085665)"><path class="outline" fill="#A5ABB6" stroke="none" d="M 25 0.5 L 55.17619256064536 0.5 L 55.17619256064536 -0.5 L 25 -0.5 Z M 84.28947381064536 0.5 L 114.46566637129072 0.5 L 114.46566637129072 3.5 L 121.46566637129072 0 L 114.46566637129072 -3.5 L 114.46566637129072 -0.5 L 84.28947381064536 -0.5 Z"/><text text-anchor="middle" pointer-events="none" font-size="8px" fill="#000000" x="69.73283318564536" y="3" font-family="sans-serif">CODE</text></g><g class="relationship" transform="translate(103.45122400008476 -166.94480336483244) rotate(197.89027317205154)"><path class="outline" fill="#A5ABB6" stroke="none" d="M 25 0.5 L 57.428218105809094 0.5 L 57.428218105809094 -0.5 L 25 -0.5 Z M 79.8774368558091 0.5 L 112.30565496161819 0.5 L 112.30565496161819 3.5 L 119.30565496161819 0 L 112.30565496161819 -3.5 L 112.30565496161819 -0.5 L 79.8774368558091 -0.5 Z"/><text text-anchor="middle" pointer-events="none" font-size="8px" fill="#000000" x="68.6528274808091" y="3" transform="rotate(180 68.6528274808091 0)" font-family="sans-serif">SYN</text></g><g class="relationship" transform="translate(-65.72155955277432 6.490277819810621) rotate(348.75072916998363)"><path class="outline" fill="#A5ABB6" stroke="none" d="M 24.018736134675446,6.953439040707552 L 24.277555179777966,5.987513214418485 A 187.34660198465764 187.34660198465764 0 0 0 31.763636507182355,7.8291889566111195 L 31.544775920082813,8.804945095927934 A 188.34660198465764 188.34660198465764 0 0 1 24.018736134675446,6.953439040707552 Z M 109.68074087816976,9.718326690169505 L 109.48474946297806,8.737721078737906 A 187.34660198465764 187.34660198465764 0 0 0 117.01183634106229,7.071543924391489 L 116.30333009546672,4.156407752623169 L 123.93190511612097,5.904218713296516 L 117.95651133518973,10.958392153415915 L 117.24800508959416,8.043255981647595 A 188.34660198465764 188.34660198465764 0 0 1 109.68074087816976,9.718326690169505"/><text text-anchor="middle" pointer-events="none" font-size="8px" fill="#000000" x="70.57071396653856" y="15.858360780071166" font-family="sans-serif">has_signature_gene</text></g><g class="relationship" transform="translate(-65.72155955277432 6.490277819810621) rotate(515.654881018271)"><path class="outline" fill="#A5ABB6" stroke="none" d="M 25 0.5 L 40.07220505685004 0.5 L 40.07220505685004 -0.5 L 25 -0.5 Z M 94.52142380685004 0.5 L 109.59362886370008 0.5 L 109.59362886370008 3.5 L 116.59362886370008 0 L 109.59362886370008 -3.5 L 109.59362886370008 -0.5 L 94.52142380685004 -0.5 Z"/><text text-anchor="middle" pointer-events="none" font-size="8px" fill="#000000" x="67.29681443185004" y="3" transform="rotate(180 67.29681443185004 0)" font-family="sans-serif">PREF_TERM</text></g></g><g class="layer nodes"><g class="node" aria-label="graph-node22678645" transform="translate(60.61962604496658,193.84738891340092)"><circle class="outline" cx="0" cy="0" r="25" fill="#57C7E3" stroke="#23b3d7" stroke-width="2px"/><text class="caption" text-anchor="middle" pointer-events="none" x="0" y="5" font-size="10px" fill="#2A2C34" font-family="sans-serif"> mosapride</text></g><g class="node" aria-label="graph-node4227387" transform="translate(165.97602522355018,96.08147843422195)"><circle class="outline" cx="0" cy="0" r="25" fill="#C990C0" stroke="#b261a5" stroke-width="2px"/><text class="caption" text-anchor="middle" pointer-events="none" x="0" y="5" font-size="10px" fill="#FFFFFF" font-family="sans-serif"> C0526501</text></g><g class="node" aria-label="graph-node4091084" transform="translate(79.65541882177166,-22.42507778558145)"><circle class="outline" cx="0" cy="0" r="25" fill="#C990C0" stroke="#b261a5" stroke-width="2px"/><text class="caption" text-anchor="middle" pointer-events="none" x="0" y="5" font-size="10px" fill="#FFFFFF" font-family="sans-serif"> C1823954</text></g><g class="node" aria-label="graph-node34652376" transform="translate(103.45122400008476,-166.94480336483244)"><circle class="outline" cx="0" cy="0" r="25" fill="#F79767" stroke="#f36924" stroke-width="2px"/><text class="caption" text-anchor="middle" pointer-events="none" x="0" y="5" font-size="10px" fill="#FFFFFF" font-family="sans-serif"> HGNC:2…</text></g><g class="node" aria-label="graph-node21628646" transform="translate(-33.87675737604529,-211.27478853355177)"><circle class="outline" cx="0" cy="0" r="25" fill="#57C7E3" stroke="#23b3d7" stroke-width="2px"/><text class="caption" text-anchor="middle" pointer-events="none" x="0" y="5" font-size="10px" fill="#2A2C34" font-family="sans-serif"> PAG608</text></g><g class="node" aria-label="graph-node19619721" transform="translate(-65.72155955277432,6.490277819810621)"><circle class="outline" cx="0" cy="0" r="25" fill="#C990C0" stroke="#b261a5" stroke-width="2px"/><text class="caption" text-anchor="middle" pointer-events="none" x="0" y="5" font-size="10px" fill="#FFFFFF" font-family="sans-serif"> TTU5Mz…</text></g><g class="node" aria-label="graph-node32232055" transform="translate(-194.72453240961696,64.85969386013062)"><circle class="outline" cx="0" cy="0" r="25" fill="#57C7E3" stroke="#23b3d7" stroke-width="2px"/><text class="caption" text-anchor="middle" pointer-events="none" x="0" y="5" font-size="10px" fill="#2A2C34" font-family="sans-serif"> HALLM…</text></g></g></svg>