<svg xmlns="http://www.w3.org/2000/svg" width="410.3199157714844" height="428.7321472167969" viewBox="-156.14996337890625 -207.31314086914062 410.3199157714844 428.7321472167969"><title>Neo4j Graph Visualization</title><desc>Created using Neo4j (http://www.neo4j.com/)</desc><g class="layer relationships"><g class="relationship" transform="translate(-85.47130002754518 100.43539394975137) rotate(385.67812089096316)"><path class="outline" fill="#A5ABB6" stroke="none" d="M 25 0.5 L 94.08281414166765 0.5 L 94.08281414166765 -0.5 L 25 -0.5 Z M 111.19609539166765 0.5 L 180.2789095333353 0.5 L 180.2789095333353 3.5 L 187.2789095333353 0 L 180.2789095333353 -3.5 L 180.2789095333353 -0.5 L 111.19609539166765 -0.5 Z"/><text text-anchor="middle" pointer-events="none" font-size="8px" fill="#000000" x="102.63945476666765" y="3" font-family="sans-serif">PN</text></g><g class="relationship" transform="translate(-85.47130002754518 100.43539394975137) rotate(254.0694752657338)"><path class="outline" fill="#A5ABB6" stroke="none" d="M 25 0.5 L 58.04626895366508 0.5 L 58.04626895366508 -0.5 L 25 -0.5 Z M 75.15955020366508 0.5 L 108.20581915733015 0.5 L 108.20581915733015 3.5 L 115.20581915733015 0 L 108.20581915733015 -3.5 L 108.20581915733015 -0.5 L 75.15955020366508 -0.5 Z"/><text text-anchor="middle" pointer-events="none" font-size="8px" fill="#000000" x="66.60290957866508" y="3" transform="rotate(180 66.60290957866508 0)" font-family="sans-serif">PN</text></g><g class="relationship" transform="translate(220.97254165127555 43.91089349848622) rotate(215.7238433148829)"><path class="outline" fill="#A5ABB6" stroke="none" d="M 17.324116139070416,-18.03122292025696 L 18.031222920256962,-17.324116139070412 A 166.9165150579925 166.9165150579925 0 0 1 71.51768974044714,-53.22987143529656 L 71.13102139401708,-54.152090275848536 A 167.9165150579925 167.9165150579925 0 0 0 17.324116139070416,-18.03122292025696 Z M 195.44381608071615,-56.36127859462076 L 195.09015942311805,-55.42590328570111 A 166.9165150579925 166.9165150579925 0 0 1 249.81862742870135,-21.443257919843532 L 247.77401959383155,-19.247904007238763 L 255.28188786392408,-17.038398623914816 L 252.54477120852772,-24.370396469983223 L 250.50016337365793,-22.175042557378454 A 167.9165150579925 167.9165150579925 0 0 0 195.44381608071615,-56.36127859462076"/><text text-anchor="middle" pointer-events="none" font-size="8px" fill="#000000" x="133.08429887972042" y="-63.6864013795977" transform="rotate(180 133.08429887972042 -66.6864013795977)" font-family="sans-serif">phenotype_associated_with_gene</text></g><g class="relationship" transform="translate(220.97254165127555 43.91089349848622) rotate(215.7238433148829)"><path class="outline" fill="#A5ABB6" stroke="none" d="M 24.018736134675446,-6.953439040707552 L 24.277555179777966,-5.987513214418485 A 431.8904251645586 431.8904251645586 0 0 1 48.6885387097349,-11.774078680969637 L 48.48624090730789,-12.753402733126677 A 432.8904251645586 432.8904251645586 0 0 0 24.018736134675446,-6.953439040707552 Z M 218.14514526773158,-13.849853111735058 L 217.95552194070433,-12.867996200649202 A 431.8904251645586 431.8904251645586 0 0 1 242.4392567108048,-7.397421413126057 L 241.7003176565726,-4.489850421021064 L 249.34674553475517,-6.157825451935086 L 243.42450878311442,-11.274182735932715 L 242.6855697288822,-8.366611743827722 A 432.8904251645586 432.8904251645586 0 0 0 218.14514526773158,-13.849853111735058"/><text text-anchor="middle" pointer-events="none" font-size="8px" fill="#000000" x="133.26468212458622" y="-18.19479322249026" transform="rotate(180 133.26468212458622 -21.19479322249026)" font-family="sans-serif">disease_or_phenotype_associated_with_gene</text></g><g class="relationship" transform="translate(220.97254165127555 43.91089349848622) rotate(529.5490858415833)"><path class="outline" fill="#A5ABB6" stroke="none" d="M 25 0.5 L 137.750008185424 0.5 L 137.750008185424 -0.5 L 25 -0.5 Z M 166.863289435424 0.5 L 279.613297620848 0.5 L 279.613297620848 3.5 L 286.613297620848 0 L 279.613297620848 -3.5 L 279.613297620848 -0.5 L 166.863289435424 -0.5 Z"/><text text-anchor="middle" pointer-events="none" font-size="8px" fill="#000000" x="152.306648810424" y="3" transform="rotate(180 152.306648810424 0)" font-family="sans-serif">CODE</text></g><g class="relationship" transform="translate(220.97254165127555 43.91089349848622) rotate(487.7841811477905)"><path class="outline" fill="#A5ABB6" stroke="none" d="M 25 0.5 L 63.22932037088759 0.5 L 63.22932037088759 -0.5 L 25 -0.5 Z M 117.67853912088759 0.5 L 155.90785949177518 0.5 L 155.90785949177518 3.5 L 162.90785949177518 0 L 155.90785949177518 -3.5 L 155.90785949177518 -0.5 L 117.67853912088759 -0.5 Z"/><text text-anchor="middle" pointer-events="none" font-size="8px" fill="#000000" x="90.45392974588759" y="3" transform="rotate(180 90.45392974588759 0)" font-family="sans-serif">PREF_TERM</text></g><g class="relationship" transform="translate(-1.1279765953538963 -115.8247106330501) rotate(395.7238433148829)"><path class="outline" fill="#A5ABB6" stroke="none" d="M 24.018736134675446,-6.953439040707552 L 24.277555179777966,-5.987513214418485 A 431.8904251645586 431.8904251645586 0 0 1 70.10816234846136,-15.638681793444619 L 69.95545958771783,-16.6269539557872 A 432.8904251645586 432.8904251645586 0 0 0 24.018736134675446,-6.953439040707552 Z M 196.62765497134149,-17.44559520017765 L 196.4877381960085,-16.455431932842203 A 431.8904251645586 431.8904251645586 0 0 1 242.4392567108048,-7.397421413126057 L 241.7003176565726,-4.489850421021064 L 249.34674553475517,-6.157825451935086 L 243.42450878311442,-11.274182735932715 L 242.6855697288822,-8.366611743827722 A 432.8904251645586 432.8904251645586 0 0 0 196.62765497134149,-17.44559520017765"/><text text-anchor="middle" pointer-events="none" font-size="8px" fill="#000000" x="133.26468212458622" y="-18.19479322249026" font-family="sans-serif">gene_associated_with_phenotype</text></g><g class="relationship" transform="translate(-1.1279765953538963 -115.8247106330501) rotate(395.7238433148829)"><path class="outline" fill="#A5ABB6" stroke="none" d="M 17.324116139070416,-18.03122292025696 L 18.031222920256962,-17.324116139070412 A 166.9165150579925 166.9165150579925 0 0 1 52.08241657778778,-43.54974843107101 L 51.579311142098405,-44.413973471543585 A 167.9165150579925 167.9165150579925 0 0 0 17.324116139070416,-18.03122292025696 Z M 215.3291876453535,-47.324006306724414 L 214.85710683181236,-46.44245103024633 A 166.9165150579925 166.9165150579925 0 0 1 249.81862742870135,-21.443257919843532 L 247.77401959383155,-19.247904007238763 L 255.28188786392408,-17.038398623914816 L 252.54477120852772,-24.370396469983223 L 250.50016337365793,-22.175042557378454 A 167.9165150579925 167.9165150579925 0 0 0 215.3291876453535,-47.324006306724414"/><text text-anchor="middle" pointer-events="none" font-size="8px" fill="#000000" x="133.08429887972042" y="-63.6864013795977" font-family="sans-serif">gene_associated_with_disease_or_phenotype</text></g><g class="relationship" transform="translate(-1.1279765953538963 -115.8247106330501) rotate(471.30621655330924)"><path class="outline" fill="#A5ABB6" stroke="none" d="M 25 0.5 L 98.00608922587791 0.5 L 98.00608922587791 -0.5 L 25 -0.5 Z M 127.11937047587791 0.5 L 200.12545970175583 0.5 L 200.12545970175583 3.5 L 207.12545970175583 0 L 200.12545970175583 -3.5 L 200.12545970175583 -0.5 L 127.11937047587791 -0.5 Z"/><text text-anchor="middle" pointer-events="none" font-size="8px" fill="#000000" x="112.56272985087791" y="3" transform="rotate(180 112.56272985087791 0)" font-family="sans-serif">CODE</text></g><g class="relationship" transform="translate(-1.1279765953538963 -115.8247106330501) rotate(206.37466822111168)"><path class="outline" fill="#A5ABB6" stroke="none" d="M 25 0.5 L 52.27533208456239 0.5 L 52.27533208456239 -0.5 L 25 -0.5 Z M 81.3886133345624 0.5 L 108.66394541912479 0.5 L 108.66394541912479 3.5 L 115.66394541912479 0 L 108.66394541912479 -3.5 L 108.66394541912479 -0.5 L 81.3886133345624 -0.5 Z"/><text text-anchor="middle" pointer-events="none" font-size="8px" fill="#000000" x="66.8319727095624" y="3" transform="rotate(180 66.8319727095624 0)" font-family="sans-serif">CODE</text></g><g class="relationship" transform="translate(-1.1279765953538963 -115.8247106330501) rotate(506.45389403146976)"><path class="outline" fill="#A5ABB6" stroke="none" d="M 25 0.5 L 42.961333856996745 0.5 L 42.961333856996745 -0.5 L 25 -0.5 Z M 97.41055260699675 0.5 L 115.37188646399349 0.5 L 115.37188646399349 3.5 L 122.37188646399349 0 L 115.37188646399349 -3.5 L 115.37188646399349 -0.5 L 97.41055260699675 -0.5 Z"/><text text-anchor="middle" pointer-events="none" font-size="8px" fill="#000000" x="70.18594323199675" y="3" transform="rotate(180 70.18594323199675 0)" font-family="sans-serif">PREF_TERM</text></g><g class="relationship" transform="translate(-127.14996663267445 -178.3131381049268) rotate(448.72785594637605)"><path class="outline" fill="#A5ABB6" stroke="none" d="M 25 0.5 L 46.14740082099743 0.5 L 46.14740082099743 -0.5 L 25 -0.5 Z M 90.81536957099743 0.5 L 111.96277039199487 0.5 L 111.96277039199487 3.5 L 118.96277039199487 0 L 111.96277039199487 -3.5 L 111.96277039199487 -0.5 L 90.81536957099743 -0.5 Z"/><text text-anchor="middle" pointer-events="none" font-size="8px" fill="#000000" x="68.48138519599743" y="3" font-family="sans-serif">MTH_ACR</text></g></g><g class="layer nodes"><g class="node" aria-label="graph-node34287113" transform="translate(-85.47130002754518,100.43539394975137)"><circle class="outline" cx="0" cy="0" r="25" fill="#F79767" stroke="#f36924" stroke-width="2px"/><text class="caption" text-anchor="middle" pointer-events="none" x="0" y="5" font-size="10px" fill="#FFFFFF" font-family="sans-serif"> NOCODE</text></g><g class="node" aria-label="graph-node28429005" transform="translate(105.84348650943312,192.41902230269454)"><circle class="outline" cx="0" cy="0" r="25" fill="#57C7E3" stroke="#23b3d7" stroke-width="2px"/><text class="caption" text-anchor="middle" pointer-events="none" x="0" y="-5" font-size="10px" fill="#2A2C34" font-family="sans-serif"> Renal</text><text class="caption" text-anchor="middle" pointer-events="none" x="0" y="5" font-size="10px" fill="#2A2C34" font-family="sans-serif"> tubular</text><text class="caption" text-anchor="middle" pointer-events="none" x="0" y="15" font-size="10px" fill="#2A2C34" font-family="sans-serif"> acido</text></g><g class="node" aria-label="graph-node14" transform="translate(220.97254165127555,43.91089349848622)"><circle class="outline" cx="0" cy="0" r="25" fill="#C990C0" stroke="#b261a5" stroke-width="2px"/><text class="caption" text-anchor="middle" pointer-events="none" x="0" y="5" font-size="10px" fill="#FFFFFF" font-family="sans-serif"> C0001126</text></g><g class="node" aria-label="graph-node3369283" transform="translate(-1.1279765953538963,-115.8247106330501)"><circle class="outline" cx="0" cy="0" r="25" fill="#C990C0" stroke="#b261a5" stroke-width="2px"/><text class="caption" text-anchor="middle" pointer-events="none" x="0" y="5" font-size="10px" fill="#FFFFFF" font-family="sans-serif"> C1420193</text></g><g class="node" aria-label="graph-node19993487" transform="translate(-123.95380913579146,-34.38585147659718)"><circle class="outline" cx="0" cy="0" r="25" fill="#57C7E3" stroke="#23b3d7" stroke-width="2px"/><text class="caption" text-anchor="middle" pointer-events="none" x="0" y="0" font-size="10px" fill="#2A2C34" font-family="sans-serif"> SLC4A1</text><text class="caption" text-anchor="middle" pointer-events="none" x="0" y="10" font-size="10px" fill="#2A2C34" font-family="sans-serif"> gene</text></g><g class="node" aria-label="graph-node32905929" transform="translate(-127.14996663267445,-178.3131381049268)"><circle class="outline" cx="0" cy="0" r="25" fill="#F79767" stroke="#f36924" stroke-width="2px"/><text class="caption" text-anchor="middle" pointer-events="none" x="0" y="5" font-size="10px" fill="#FFFFFF" font-family="sans-serif"> HGNC:1…</text></g></g></svg>